<svg width="797" height="185" viewBox="0 0 797 185" fill="none" xmlns="http://www.w3.org/2000/svg">
<path d="M264.984 91.792C267.864 92.704 270.12 94.24 271.752 96.4C273.384 98.512 274.2 101.128 274.2 104.248C274.2 108.664 272.472 112.072 269.016 114.472C265.608 116.824 260.616 118 254.04 118H227.976V67.6H252.6C258.744 67.6 263.448 68.776 266.712 71.128C270.024 73.48 271.68 76.672 271.68 80.704C271.68 83.152 271.08 85.336 269.88 87.256C268.728 89.176 267.096 90.688 264.984 91.792ZM239.568 76.384V88.264H251.16C254.04 88.264 256.224 87.76 257.712 86.752C259.2 85.744 259.944 84.256 259.944 82.288C259.944 80.32 259.2 78.856 257.712 77.896C256.224 76.888 254.04 76.384 251.16 76.384H239.568ZM253.176 109.216C256.248 109.216 258.552 108.712 260.088 107.704C261.672 106.696 262.464 105.136 262.464 103.024C262.464 98.848 259.368 96.76 253.176 96.76H239.568V109.216H253.176Z" fill="#282117"/>
<path d="M403.032 92.008H413.688V112.456C410.952 114.52 407.784 116.104 404.184 117.208C400.584 118.312 396.96 118.864 393.312 118.864C388.08 118.864 383.376 117.76 379.2 115.552C375.024 113.296 371.736 110.2 369.336 106.264C366.984 102.28 365.808 97.792 365.808 92.8C365.808 87.808 366.984 83.344 369.336 79.408C371.736 75.424 375.048 72.328 379.272 70.12C383.496 67.864 388.248 66.736 393.528 66.736C397.944 66.736 401.952 67.48 405.552 68.968C409.152 70.456 412.176 72.616 414.624 75.448L407.136 82.36C403.536 78.568 399.192 76.672 394.104 76.672C390.888 76.672 388.032 77.344 385.536 78.688C383.04 80.032 381.096 81.928 379.704 84.376C378.312 86.824 377.616 89.632 377.616 92.8C377.616 95.92 378.312 98.704 379.704 101.152C381.096 103.6 383.016 105.52 385.464 106.912C387.96 108.256 390.792 108.928 393.96 108.928C397.32 108.928 400.344 108.208 403.032 106.768V92.008ZM456.635 118L446.915 103.96H446.339H436.187V118H424.523V67.6H446.339C450.803 67.6 454.667 68.344 457.931 69.832C461.243 71.32 463.787 73.432 465.563 76.168C467.339 78.904 468.227 82.144 468.227 85.888C468.227 89.632 467.315 92.872 465.491 95.608C463.715 98.296 461.171 100.36 457.859 101.8L469.163 118H456.635ZM456.419 85.888C456.419 83.056 455.507 80.896 453.683 79.408C451.859 77.872 449.195 77.104 445.691 77.104H436.187V94.672H445.691C449.195 94.672 451.859 93.904 453.683 92.368C455.507 90.832 456.419 88.672 456.419 85.888ZM477.468 67.6H489.132V118H477.468V67.6ZM525.213 118.864C520.077 118.864 515.421 117.76 511.245 115.552C507.117 113.296 503.853 110.2 501.453 106.264C499.101 102.28 497.925 97.792 497.925 92.8C497.925 87.808 499.101 83.344 501.453 79.408C503.853 75.424 507.117 72.328 511.245 70.12C515.421 67.864 520.101 66.736 525.285 66.736C529.653 66.736 533.589 67.504 537.093 69.04C540.645 70.576 543.621 72.784 546.021 75.664L538.533 82.576C535.125 78.64 530.901 76.672 525.861 76.672C522.741 76.672 519.957 77.368 517.509 78.76C515.061 80.104 513.141 82 511.749 84.448C510.405 86.896 509.733 89.68 509.733 92.8C509.733 95.92 510.405 98.704 511.749 101.152C513.141 103.6 515.061 105.52 517.509 106.912C519.957 108.256 522.741 108.928 525.861 108.928C530.901 108.928 535.125 106.936 538.533 102.952L546.021 109.864C543.621 112.792 540.645 115.024 537.093 116.56C533.541 118.096 529.581 118.864 525.213 118.864ZM575.868 118.864C568.668 118.864 563.052 116.872 559.02 112.888C555.036 108.904 553.044 103.216 553.044 95.824V67.6H564.708V95.392C564.708 104.416 568.452 108.928 575.94 108.928C579.588 108.928 582.372 107.848 584.292 105.688C586.212 103.48 587.172 100.048 587.172 95.392V67.6H598.692V95.824C598.692 103.216 596.676 108.904 592.644 112.888C588.66 116.872 583.068 118.864 575.868 118.864ZM610.218 67.6H621.882V108.496H647.154V118H610.218V67.6ZM659.4 77.104H643.272V67.6H687.192V77.104H671.064V118H659.4V77.104ZM715.016 118.864C707.816 118.864 702.2 116.872 698.168 112.888C694.184 108.904 692.192 103.216 692.192 95.824V67.6H703.856V95.392C703.856 104.416 707.6 108.928 715.088 108.928C718.736 108.928 721.52 107.848 723.44 105.688C725.36 103.48 726.32 100.048 726.32 95.392V67.6H737.84V95.824C737.84 103.216 735.824 108.904 731.792 112.888C727.808 116.872 722.216 118.864 715.016 118.864ZM781.479 118L771.759 103.96H771.183H761.031V118H749.367V67.6H771.183C775.647 67.6 779.511 68.344 782.775 69.832C786.087 71.32 788.631 73.432 790.407 76.168C792.183 78.904 793.071 82.144 793.071 85.888C793.071 89.632 792.159 92.872 790.335 95.608C788.559 98.296 786.015 100.36 782.703 101.8L794.007 118H781.479ZM781.263 85.888C781.263 83.056 780.351 80.896 778.527 79.408C776.703 77.872 774.039 77.104 770.535 77.104H761.031V94.672H770.535C774.039 94.672 776.703 93.904 778.527 92.368C780.351 90.832 781.263 88.672 781.263 85.888Z" fill="#282117"/>
<mask id="path-3-inside-1" fill="white">
<path d="M321.681 61C320.237 61.0027 318.774 61.7349 317.802 63.1883L288.828 106.992C286.282 112.361 289.971 117.496 294.973 118.95C304.368 121.046 312.973 115.447 312.973 115.447C325.648 107.325 333.833 102.743 333.833 102.743C343.935 97.6149 352.773 103.906 352.792 103.919L325.442 63.1883C324.546 61.724 323.124 60.9973 321.678 61H321.681ZM321.691 65.5013C322.829 65.4959 323.947 66.0707 324.652 67.2232C331.331 77.1477 338.925 87.384 345.314 97.4875C345.314 97.4875 339.215 94.3095 331.257 98.3498C331.257 98.3498 324.811 101.956 314.839 108.348C314.839 108.348 308.068 112.751 300.674 111.103C296.739 109.958 293.833 105.918 295.837 101.69L318.642 67.2232C319.405 66.0816 320.557 65.504 321.691 65.5013V65.5013ZM344.496 103.911C333.568 104.182 324.088 114.405 316.364 117.423C328.105 131.551 363.257 114.793 350.094 105.427C348.423 104.288 346.533 103.86 344.496 103.909V103.911ZM344.428 106.666C345.904 106.674 347.245 107.059 348.374 107.962C354.571 114.161 331.298 124.943 321.402 117.852C324.603 117.605 336.463 106.623 344.428 106.666Z"/>
</mask>
<path d="M321.681 61C320.237 61.0027 318.774 61.7349 317.802 63.1883L288.828 106.992C286.282 112.361 289.971 117.496 294.973 118.95C304.368 121.046 312.973 115.447 312.973 115.447C325.648 107.325 333.833 102.743 333.833 102.743C343.935 97.6149 352.773 103.906 352.792 103.919L325.442 63.1883C324.546 61.724 323.124 60.9973 321.678 61H321.681ZM321.691 65.5013C322.829 65.4959 323.947 66.0707 324.652 67.2232C331.331 77.1477 338.925 87.384 345.314 97.4875C345.314 97.4875 339.215 94.3095 331.257 98.3498C331.257 98.3498 324.811 101.956 314.839 108.348C314.839 108.348 308.068 112.751 300.674 111.103C296.739 109.958 293.833 105.918 295.837 101.69L318.642 67.2232C319.405 66.0816 320.557 65.504 321.691 65.5013V65.5013ZM344.496 103.911C333.568 104.182 324.088 114.405 316.364 117.423C328.105 131.551 363.257 114.793 350.094 105.427C348.423 104.288 346.533 103.86 344.496 103.909V103.911ZM344.428 106.666C345.904 106.674 347.245 107.059 348.374 107.962C354.571 114.161 331.298 124.943 321.402 117.852C324.603 117.605 336.463 106.623 344.428 106.666Z" fill="#507A4F"/>
<path d="M321.681 61L321.697 70L321.681 52V61ZM317.802 63.1883L310.322 58.184L310.309 58.2035L310.296 58.223L317.802 63.1883ZM288.828 106.992L281.321 102.026L280.969 102.559L280.696 103.136L288.828 106.992ZM294.973 118.95L292.462 127.593L292.735 127.672L293.013 127.734L294.973 118.95ZM312.973 115.447L308.118 107.869L308.091 107.886L308.064 107.903L312.973 115.447ZM333.833 102.743L329.76 94.7172L329.596 94.8002L329.436 94.8897L333.833 102.743ZM352.792 103.919L347.557 111.24L360.264 98.9024L352.792 103.919ZM325.442 63.1883L317.767 67.8876L317.865 68.0486L317.971 68.2054L325.442 63.1883ZM321.678 61L321.661 52L321.678 70V61ZM324.652 67.2232L316.972 71.9158L317.075 72.0842L317.185 72.248L324.652 67.2232ZM345.314 97.4875L341.155 105.469L370.766 120.898L352.921 92.6773L345.314 97.4875ZM331.257 98.3498L327.183 90.325L327.021 90.407L326.863 90.4955L331.257 98.3498ZM314.839 108.348L309.983 100.77L309.957 100.786L309.932 100.803L314.839 108.348ZM300.674 111.103L298.161 119.745L298.436 119.824L298.716 119.887L300.674 111.103ZM295.837 101.69L288.331 96.7244L287.978 97.2574L287.705 97.835L295.837 101.69ZM318.642 67.2232L311.161 62.2186L311.149 62.2378L311.136 62.2571L318.642 67.2232ZM344.496 103.911L344.719 112.909L353.496 112.691V103.911H344.496ZM316.364 117.423L313.089 109.04L301.468 113.581L309.442 123.176L316.364 117.423ZM350.094 105.427L355.312 98.094L355.238 98.0413L355.163 97.99L350.094 105.427ZM344.496 103.909L344.28 94.9112L335.496 95.1217V103.909H344.496ZM344.428 106.666L344.478 97.6664L344.477 97.6664L344.428 106.666ZM348.374 107.962L354.739 101.599L354.386 101.246L353.995 100.933L348.374 107.962ZM321.402 117.852L320.71 108.878L296.075 110.777L316.16 125.168L321.402 117.852ZM321.664 52C317.103 52.0086 312.894 54.3395 310.322 58.184L325.283 68.1926C324.655 69.1303 323.371 69.9968 321.697 70L321.664 52ZM310.296 58.223L281.321 102.026L296.334 111.957L325.309 68.1535L310.296 58.223ZM280.696 103.136C278.085 108.641 278.654 114.383 281.269 118.927C283.749 123.238 287.907 126.269 292.462 127.593L297.484 110.307C297.302 110.254 297.132 110.166 297.001 110.066C296.87 109.966 296.845 109.906 296.871 109.951C296.904 110.01 296.984 110.184 296.998 110.45C297.005 110.576 296.994 110.688 296.977 110.773C296.96 110.858 296.943 110.884 296.96 110.848L280.696 103.136ZM293.013 127.734C299.91 129.273 306.195 127.942 310.41 126.5C312.569 125.761 314.347 124.938 315.61 124.286C316.246 123.958 316.762 123.667 317.144 123.443C317.335 123.33 317.494 123.234 317.617 123.158C317.679 123.12 317.732 123.086 317.776 123.058C317.798 123.044 317.818 123.031 317.836 123.02C317.844 123.014 317.853 123.009 317.86 123.004C317.864 123.001 317.868 122.999 317.872 122.997C317.873 122.995 317.876 122.994 317.877 122.993C317.879 122.992 317.882 122.99 312.973 115.447C308.064 107.903 308.067 107.902 308.069 107.9C308.07 107.899 308.072 107.898 308.074 107.897C308.077 107.895 308.08 107.893 308.082 107.891C308.088 107.888 308.093 107.884 308.098 107.881C308.107 107.875 308.115 107.871 308.12 107.867C308.131 107.86 308.135 107.858 308.131 107.86C308.124 107.864 308.088 107.887 308.026 107.923C307.9 107.997 307.671 108.127 307.353 108.291C306.709 108.624 305.749 109.07 304.583 109.469C302.147 110.302 299.432 110.723 296.933 110.166L293.013 127.734ZM317.828 123.024C324.073 119.023 329.204 115.899 332.759 113.783C334.537 112.725 335.92 111.92 336.851 111.383C337.317 111.114 337.669 110.913 337.901 110.781C338.017 110.715 338.103 110.667 338.159 110.636C338.186 110.62 338.206 110.609 338.218 110.602C338.224 110.599 338.228 110.597 338.23 110.596C338.231 110.595 338.231 110.595 338.231 110.595C338.231 110.595 338.231 110.595 338.231 110.595C338.231 110.595 338.231 110.595 338.231 110.595C338.23 110.595 338.23 110.596 333.833 102.743C329.436 94.8897 329.436 94.8899 329.435 94.8902C329.435 94.8903 329.435 94.8905 329.434 94.8907C329.434 94.8911 329.433 94.8916 329.432 94.8922C329.43 94.8933 329.427 94.8947 329.424 94.8963C329.419 94.8997 329.411 94.9041 329.401 94.9097C329.381 94.9208 329.353 94.9364 329.318 94.9564C329.247 94.9965 329.144 95.0543 329.012 95.1295C328.747 95.2799 328.361 95.5002 327.861 95.7884C326.862 96.3646 325.406 97.2123 323.553 98.3152C319.848 100.521 314.548 103.749 308.118 107.869L317.828 123.024ZM337.907 110.768C340.488 109.458 342.833 109.577 344.759 110.095C346.813 110.647 348.035 111.582 347.557 111.24L358.027 96.5988C357.728 96.385 344.82 87.073 329.76 94.7172L337.907 110.768ZM360.264 98.9024L332.914 58.1712L317.971 68.2054L345.32 108.937L360.264 98.9024ZM333.118 58.4889C330.599 54.3743 326.277 51.9914 321.661 52L321.695 70C319.971 70.0032 318.493 69.0737 317.767 67.8876L333.118 58.4889ZM321.678 70H321.681V52H321.678V70ZM321.734 74.5012C319.665 74.5111 317.881 73.4039 316.972 71.9158L332.331 62.5305C330.014 58.7375 325.993 56.4807 321.648 56.5014L321.734 74.5012ZM317.185 72.248C324.251 82.7479 331.346 92.2379 337.707 102.298L352.921 92.6773C346.504 82.5301 338.41 71.5474 332.118 62.1983L317.185 72.248ZM345.314 97.4875C349.473 89.506 349.469 89.5038 349.464 89.5016C349.463 89.5009 349.459 89.4987 349.456 89.4972C349.45 89.4943 349.444 89.4913 349.439 89.4882C349.427 89.4821 349.414 89.4758 349.402 89.4693C349.376 89.4563 349.349 89.4426 349.32 89.4281C349.262 89.3993 349.198 89.3675 349.126 89.3333C348.983 89.2649 348.812 89.1864 348.615 89.1009C348.221 88.9301 347.717 88.7299 347.113 88.5261C345.909 88.12 344.276 87.6897 342.297 87.4623C338.271 86.9998 332.943 87.4 327.183 90.325L335.332 106.375C337.529 105.259 339.23 105.228 340.242 105.345C340.783 105.407 341.172 105.519 341.36 105.582C341.452 105.613 341.487 105.63 341.458 105.617C341.443 105.61 341.411 105.596 341.361 105.572C341.336 105.56 341.307 105.546 341.272 105.529C341.255 105.52 341.237 105.511 341.217 105.501C341.208 105.496 341.198 105.491 341.187 105.486C341.182 105.483 341.177 105.48 341.172 105.477C341.169 105.476 341.165 105.474 341.163 105.473C341.159 105.471 341.155 105.469 345.314 97.4875ZM331.257 98.3498C326.863 90.4955 326.863 90.4957 326.862 90.496C326.862 90.4961 326.862 90.4963 326.861 90.4965C326.861 90.4969 326.86 90.4973 326.859 90.4978C326.857 90.4988 326.855 90.5 326.852 90.5015C326.847 90.5043 326.841 90.5081 326.832 90.5127C326.816 90.5219 326.793 90.5347 326.764 90.551C326.707 90.5835 326.624 90.6299 326.518 90.6901C326.306 90.8106 325.999 90.986 325.601 91.215C324.807 91.6728 323.653 92.3446 322.186 93.2175C319.252 94.9629 315.062 97.5147 309.983 100.77L319.695 115.925C324.588 112.789 328.607 110.342 331.39 108.686C332.781 107.859 333.862 107.229 334.588 106.811C334.95 106.602 335.224 106.446 335.404 106.344C335.493 106.293 335.559 106.256 335.601 106.233C335.622 106.221 335.636 106.213 335.645 106.208C335.649 106.206 335.652 106.204 335.653 106.203C335.654 106.203 335.654 106.203 335.654 106.203C335.653 106.203 335.653 106.203 335.653 106.203C335.653 106.203 335.653 106.204 335.652 106.204C335.652 106.204 335.652 106.204 331.257 98.3498ZM314.839 108.348C309.932 100.803 309.935 100.801 309.937 100.8C309.938 100.799 309.94 100.798 309.942 100.797C309.945 100.795 309.948 100.793 309.951 100.791C309.957 100.787 309.962 100.783 309.967 100.78C309.978 100.774 309.986 100.768 309.994 100.763C310.008 100.754 310.017 100.748 310.02 100.746C310.027 100.742 310.012 100.752 309.977 100.773C309.905 100.815 309.756 100.9 309.539 101.011C309.098 101.239 308.43 101.55 307.617 101.827C305.89 102.418 304.132 102.653 302.633 102.318L298.716 119.887C304.61 121.201 309.935 120.058 313.441 118.859C315.246 118.242 316.732 117.555 317.792 117.008C318.326 116.733 318.763 116.487 319.091 116.294C319.255 116.198 319.393 116.115 319.502 116.047C319.557 116.013 319.605 115.983 319.645 115.957C319.666 115.944 319.684 115.932 319.701 115.921C319.709 115.916 319.717 115.911 319.725 115.906C319.729 115.903 319.732 115.901 319.736 115.899C319.738 115.898 319.74 115.896 319.741 115.895C319.743 115.894 319.746 115.892 314.839 108.348ZM303.187 102.46C303.271 102.485 303.545 102.571 303.828 103.063C303.993 103.349 304.153 103.777 304.181 104.311C304.211 104.867 304.084 105.305 303.969 105.546L287.705 97.835C285.365 102.77 285.874 107.953 288.228 112.042C290.447 115.897 294.142 118.576 298.161 119.745L303.187 102.46ZM303.343 106.657L326.148 72.1893L311.136 62.2571L288.331 96.7244L303.343 106.657ZM326.122 72.2277C325.289 73.4732 323.697 74.4965 321.713 74.5013L321.67 56.5013C317.416 56.5115 313.522 58.69 311.161 62.2186L326.122 72.2277ZM344.273 94.9141C336.207 95.1142 329.328 98.9323 324.425 102.026C322.227 103.413 319.178 105.495 317.596 106.519C315.533 107.852 314.127 108.635 313.089 109.04L319.639 125.806C322.464 124.703 325.139 123.076 327.367 121.635C330.076 119.884 331.528 118.828 334.032 117.248C338.532 114.408 341.857 112.98 344.719 112.909L344.273 94.9141ZM309.442 123.176C314.476 129.233 321.607 131.452 327.928 131.812C334.248 132.171 340.692 130.771 346.035 128.541C351.101 126.426 356.652 122.939 359.71 117.928C361.356 115.231 362.581 111.539 361.718 107.381C360.853 103.219 358.223 100.165 355.312 98.094L344.877 112.76C345.256 113.03 344.407 112.549 344.094 111.041C343.781 109.537 344.328 108.58 344.346 108.551C344.355 108.536 344.277 108.664 344.036 108.91C343.8 109.151 343.454 109.458 342.979 109.807C342.015 110.514 340.7 111.262 339.101 111.93C335.834 113.294 332.111 114.02 328.949 113.84C325.789 113.661 324.122 112.677 323.286 111.671L309.442 123.176ZM355.163 97.99C351.613 95.5706 347.764 94.8277 344.28 94.9112L344.712 112.906C345.036 112.898 345.168 112.933 345.168 112.933C345.169 112.933 345.163 112.932 345.153 112.928C345.142 112.924 345.128 112.919 345.112 112.912C345.077 112.896 345.047 112.878 345.026 112.864L355.163 97.99ZM335.496 103.909V103.911H353.496V103.909H335.496ZM344.379 115.666C344.351 115.666 344.136 115.661 343.804 115.556C343.453 115.444 343.082 115.254 342.754 114.992L353.995 100.933C350.979 98.5222 347.553 97.6834 344.478 97.6664L344.379 115.666ZM342.01 114.325C341.174 113.489 340.277 111.858 340.424 109.815C340.484 108.968 340.711 108.335 340.888 107.958C341.062 107.589 341.216 107.402 341.23 107.384C341.235 107.379 340.97 107.679 340.238 108.159C339.544 108.614 338.617 109.107 337.499 109.567C335.214 110.507 332.632 111.103 330.377 111.174C328.01 111.249 326.924 110.737 326.643 110.536L316.16 125.168C320.827 128.512 326.362 129.311 330.948 129.165C335.646 129.016 340.351 127.858 344.347 126.214C348.158 124.646 352.312 122.229 355.102 118.855C356.521 117.139 358.134 114.505 358.378 111.101C358.649 107.309 357.125 103.985 354.739 101.599L342.01 114.325ZM322.093 126.825C324.361 126.65 326.234 125.736 327.015 125.345C328.061 124.821 329.113 124.185 330.031 123.606C330.971 123.013 331.987 122.341 332.954 121.702C333.952 121.043 334.942 120.39 335.955 119.746C338.015 118.438 339.919 117.331 341.615 116.568C342.447 116.193 343.12 115.952 343.641 115.81C344.172 115.666 344.398 115.666 344.379 115.666L344.477 97.6664C340.595 97.6453 336.973 98.9174 334.226 100.154C331.357 101.446 328.603 103.092 326.302 104.554C325.135 105.295 324.019 106.032 323.034 106.683C322.018 107.354 321.175 107.911 320.429 108.381C319.66 108.866 319.199 109.128 318.951 109.252C318.44 109.508 319.243 108.991 320.71 108.878L322.093 126.825Z" fill="#507A4F" mask="url(#path-3-inside-1)"/>
<path fill-rule="evenodd" clip-rule="evenodd" d="M184.942 7.80537L179.884 7.00075L178.557 2.05L186.188 0L184.948 7.80537H184.942ZM117.19 78.6841L112.829 81.3696L112.818 81.3594L112.803 81.3338L112.752 81.2517L112.577 80.9596C112.434 80.7136 112.219 80.3549 111.962 79.8988C111.244 78.6439 110.552 77.3743 109.887 76.0909C107.78 72.0563 105.942 67.8875 104.383 63.6115C102.65 58.7735 101.164 53.2334 100.933 47.8726C100.708 42.5324 101.702 36.736 105.679 32.1901C109.251 28.1106 115.986 24.354 123.063 21.1047C130.397 17.7274 139.028 14.4884 147.202 11.685C157.327 8.22704 167.555 5.07544 177.87 2.2345L178.382 2.091L178.562 2.03975L179.894 6.99562L184.953 7.80025L184.922 7.98987L184.835 8.53312C184.323 11.6772 183.787 14.8172 183.226 17.9529C181.86 25.664 180.37 33.3525 178.757 41.0154C176.932 49.6305 174.81 58.6607 172.56 66.2201C171.438 69.9972 170.259 73.4874 169.04 76.4189C167.871 79.2376 166.487 81.9744 164.806 83.9014C161.209 88.0116 155.607 89.298 150.713 89.626C145.608 89.9694 139.95 89.3493 134.861 88.4473C130.322 87.6296 125.827 86.5862 121.392 85.321C119.578 84.8099 117.773 84.2632 115.98 83.681L115.658 83.5683L115.57 83.5375L115.545 83.5324H115.535L117.195 78.679L117.19 78.6841ZM117.19 78.6841L112.829 81.3696L113.792 82.9327L115.535 83.5324L117.19 78.6841ZM120.634 74.415C125.881 76.0527 131.222 77.3706 136.629 78.3613C141.365 79.1966 146.1 79.6681 150.026 79.4016C154.172 79.1249 156.253 78.1101 157.088 77.1569C157.621 76.5419 158.492 75.0864 159.569 72.4931C160.599 70.0178 161.665 66.8966 162.731 63.304C164.868 56.129 166.923 47.4011 168.727 38.8988C170.458 30.6728 172.044 22.4168 173.483 14.1348L171.899 14.596C166.216 16.2719 158.538 18.6345 150.528 21.3815C142.502 24.1336 134.236 27.2445 127.343 30.4169C120.188 33.7071 115.36 36.695 113.392 38.9449C111.819 40.7386 111.009 43.501 111.178 47.4319C111.342 51.3423 112.465 55.7856 114.033 60.147C115.581 64.4622 117.467 68.4495 118.984 71.3708C119.624 72.6008 120.193 73.636 120.634 74.415ZM22.5978 20.705L21.2704 25.6557L16.2069 26.4604L14.9667 18.6601L22.6029 20.7101L22.5978 20.705ZM72.218 83.9116L76.5794 86.592L76.5897 86.5817L76.5999 86.5612L76.6409 86.4946L76.7895 86.2486C77.5623 84.9322 78.3006 83.5959 79.0035 82.2409C80.3565 79.6374 82.0837 76.0037 83.5289 71.9857C84.9537 68.0087 86.1939 63.4014 86.3835 58.9119C86.5783 54.4378 85.748 49.446 82.2938 45.4998C79.2393 42.0045 73.5864 38.8885 67.8464 36.244C61.845 33.4816 54.7982 30.8371 48.1408 28.5565C39.8953 25.7403 31.5668 23.1733 23.1667 20.8587L22.7464 20.746L22.5978 20.705L21.2704 25.6557L16.2069 26.4604L16.2325 26.6141L16.3043 27.06L16.581 28.7307C17.9639 37.0206 19.5206 45.2805 21.2499 53.505C22.7362 60.516 24.4684 67.8806 26.3032 74.0563C27.2257 77.1415 28.1892 80.0166 29.1988 82.4408C30.1572 84.747 31.3308 87.0994 32.8068 88.7804C35.9843 92.4191 40.8684 93.4954 44.912 93.7619C49.176 94.0489 53.8552 93.5313 58.0321 92.7984C63.2764 91.8568 68.4483 90.5484 73.5096 88.8829L73.7709 88.7958L73.8478 88.7701L73.8734 88.7599L72.218 83.9116ZM72.218 83.9116L76.5794 86.592L75.6159 88.1602L73.8734 88.7599L72.218 83.9116ZM68.7689 79.6374C70.7715 76.0788 72.4803 72.3628 73.8785 68.5264C75.1342 65.026 76.0157 61.5154 76.1438 58.4711C76.2771 55.4064 75.6313 53.4486 74.5807 52.2443C73.1303 50.594 69.3891 48.2365 63.5619 45.5561C58.0064 42.9988 51.3234 40.4824 44.8147 38.253C39.1447 36.3174 33.4342 34.5027 27.6869 32.8103L27.7074 32.9384C28.5787 37.8584 29.8189 44.5004 31.2795 51.3833C32.7402 58.2815 34.4058 65.3386 36.1278 71.135C36.9939 74.0357 37.8447 76.5419 38.6647 78.5099C39.5359 80.5957 40.1919 81.6566 40.5199 82.0359C40.9402 82.5125 42.2983 83.3171 45.5988 83.5375C48.6789 83.7425 52.4407 83.3735 56.2537 82.7021C60.4851 81.9394 64.6649 80.9141 68.7689 79.6322V79.6374ZM57.5452 128.499C56.2434 128.571 55.6079 128.755 55.4439 128.827C53.1223 129.878 46.0703 132.338 39.9818 134.413C36.8555 135.485 33.8574 136.489 31.6434 137.232L31.4999 137.283V164.974C32.4019 164.933 33.3705 164.897 34.3597 164.861C38.6032 164.707 43.6513 164.554 45.8397 164.646C55.0237 165.01 61.9219 167.183 68.3077 169.197L68.446 169.243C74.432 171.129 79.9773 172.861 87.2394 173.409C89.2894 173.563 91.283 173.763 93.1434 173.948H93.1691C100.313 174.665 105.018 175.024 108.662 173.702C111.496 172.671 121.874 167.859 132.339 162.596C137.516 159.992 142.589 157.343 146.623 155.072C148.647 153.935 150.364 152.92 151.681 152.069C152.337 151.644 152.86 151.285 153.26 150.993C153.417 150.878 153.571 150.758 153.721 150.634L153.864 150.511C154.377 149.993 154.92 148.189 154.039 146.493C153.624 145.7 152.938 145.081 152.107 144.751C151.082 144.305 149.339 143.961 146.572 144.417C140.329 145.442 132.872 148.446 125.426 151.475L125.323 151.521C121.664 153.007 117.995 154.498 114.74 155.585C111.614 156.625 108.144 157.558 105.121 157.378C100.969 157.122 93.6867 156.046 87.6802 155.072C84.2284 154.514 80.7809 153.93 77.3379 153.319L76.6717 153.202L76.4359 153.156L77.4097 142.988L100.831 143.269H100.882C101.156 143.24 101.427 143.188 101.692 143.116C102.502 142.911 103.891 142.403 105.638 141.168C106.176 140.784 106.884 140.077 107.545 139.128C107.816 138.734 108.047 138.344 108.242 137.97C105.386 137.788 102.549 137.387 99.7547 136.771C98.2332 136.44 96.7238 136.055 95.2293 135.618L95.055 135.567L66.3704 129.181L66.0988 129.135C64.5717 128.881 63.0345 128.693 61.4914 128.571C60.1789 128.462 58.8608 128.438 57.5452 128.499ZM67.3749 124.158L68.3025 119.12L68.3948 119.136L97.6995 125.655L97.9148 125.721L97.9558 125.737L98.1505 125.793L98.9603 126.024C99.6727 126.219 100.698 126.485 101.917 126.752C104.408 127.29 107.524 127.787 110.404 127.787C113.29 127.787 116.426 128.863 118.118 131.928C119.563 134.552 119.204 137.391 118.697 139.267C118.226 140.925 117.524 142.509 116.611 143.972C118.169 143.357 119.824 142.69 121.562 141.983L121.879 141.85C128.942 138.98 137.408 135.536 144.906 134.301C153.618 132.876 160.153 136.002 163.141 141.783C165.775 146.883 165.191 153.606 161.168 157.696C160.158 158.721 158.656 159.762 157.221 160.689C155.663 161.689 153.757 162.816 151.645 164.005C147.417 166.383 142.185 169.115 136.937 171.754C126.574 176.966 115.658 182.066 112.152 183.337C106.074 185.54 99.0423 184.838 92.7949 184.213L92.1441 184.146C90.2534 183.953 88.3604 183.782 86.4656 183.634C77.9581 182.988 71.4391 180.933 65.4838 179.057L65.3557 179.016C58.9494 176.997 53.1787 175.198 45.4297 174.885C43.7282 174.819 39.1464 174.942 34.7287 175.106C32.2409 175.196 29.7536 175.297 27.2667 175.408L26.6055 175.439L21.2448 175.685V129.888L25.7394 128.397C29.3865 127.185 33.0287 125.958 36.6659 124.717C43.0414 122.539 49.4682 120.279 51.2209 119.489C53.1018 118.639 55.2389 118.362 56.9507 118.259C58.77 118.157 60.6407 118.234 62.2755 118.357C64.2435 118.511 66.2033 118.755 68.1488 119.09L68.2564 119.11H68.2872L68.2974 119.115H68.3077L67.3749 124.158Z" fill="#507A4F"/>
<path fill-rule="evenodd" clip-rule="evenodd" d="M150.144 37.4433C150.655 37.8807 151.076 38.4146 151.381 39.0145C151.686 39.6145 151.87 40.2686 151.922 40.9396C151.975 41.6107 151.894 42.2854 151.686 42.9254C151.477 43.5654 151.145 44.158 150.707 44.6695C135.43 62.4943 116.411 88.6164 108.016 109.849C107.768 110.475 107.4 111.046 106.932 111.53C106.463 112.013 105.904 112.4 105.287 112.667C104.669 112.935 104.004 113.078 103.331 113.088C102.658 113.099 101.99 112.977 101.364 112.73C100.738 112.482 100.167 112.113 99.6835 111.645C99.2 111.177 98.8135 110.618 98.5461 110C98.2786 109.382 98.1354 108.718 98.1247 108.045C98.114 107.372 98.236 106.703 98.4837 106.077C107.519 83.2249 127.445 56.0573 142.917 38.0019C143.802 36.9703 145.061 36.3325 146.416 36.2287C147.771 36.1249 149.112 36.5636 150.144 37.4484V37.4433Z" fill="#282117"/>
<path fill-rule="evenodd" clip-rule="evenodd" d="M48.8226 53.8842C48.2941 54.3014 47.8529 54.8186 47.5244 55.4063C47.1958 55.994 46.9863 56.6406 46.9078 57.3093C46.8293 57.978 46.8833 58.6556 47.0667 59.3035C47.2502 59.9513 47.5594 60.5566 47.9769 61.0848C59.4672 75.6655 72.0132 94.3256 77.9684 109.803C78.4797 111.038 79.4535 112.025 80.682 112.552C81.9106 113.08 83.2965 113.106 84.5443 112.626C85.7921 112.146 86.8029 111.197 87.361 109.983C87.9191 108.768 87.9803 107.383 87.5317 106.123C81.0178 89.1904 67.7082 69.5565 56.0232 54.7401C55.1823 53.6727 53.952 52.9829 52.6026 52.8224C51.2533 52.6619 49.8955 53.0438 48.8277 53.8842H48.8226Z" fill="#282117"/>
<path d="M0.75 118.213H31.5V184.838H0.75V118.213Z" fill="#282117"/>
</svg>
