<svg width="48" height="48" viewBox="0 0 48 48" fill="none" xmlns="http://www.w3.org/2000/svg">
<path d="M10.0817 21.6248L10.2447 21.6247C11.1761 21.6242 12.0864 21.3475 12.8607 20.8296C13.6349 20.3117 14.2381 19.576 14.5942 18.7153C14.9503 17.8546 15.0432 16.9076 14.8611 15.9942C14.6791 15.0807 14.2303 14.2417 13.5715 13.5833C12.9127 12.9248 12.0734 12.4765 11.1599 12.295C10.2463 12.1135 9.29939 12.2069 8.43891 12.5635C7.57843 12.92 6.84299 13.5237 6.32556 14.2982C5.80817 15.0727 5.532 15.9832 5.53197 16.9146L10.0817 21.6248ZM10.0817 21.6248C8.89114 21.5832 7.75802 21.092 6.9128 20.2468C6.02903 19.3631 5.53237 18.1645 5.53197 16.9147L10.0817 21.6248ZM31.0082 30.2221L30.9209 30.2706C30.6704 30.3913 30.4226 30.4001 30.1492 30.3129C29.8253 30.2094 29.454 29.9654 29.035 29.5639L27.9212 28.4964L28.1972 30.0143C28.3492 30.8508 28.4383 31.7554 28.4383 32.7034C28.4383 34.8234 28.0226 36.7164 27.3764 38.0608C26.7123 39.4422 25.8948 40.0837 25.1614 40.0837C24.7539 40.0837 24.4304 39.8893 24.1485 39.4301C23.8523 38.9478 23.6348 38.2151 23.4898 37.2626L22.5012 37.2627C22.3554 38.2224 22.1378 38.9541 21.8415 39.4341C21.5604 39.8893 21.2358 40.0837 20.8207 40.0837C20.0826 40.0837 19.2663 39.4423 18.6048 38.0619C17.9608 36.7178 17.5482 34.8248 17.5482 32.7034V32.703C17.5475 31.8007 17.6278 30.9001 17.788 30.0121L18.0625 28.491L16.9491 29.5632C16.5343 29.9627 16.1641 30.2049 15.8407 30.3076C15.5379 30.4037 15.2659 30.3824 14.9888 30.2247L14.9888 30.2246L14.9838 30.2219C14.336 29.8627 13.9332 28.905 14.0242 27.3784C14.1129 25.8916 14.6704 24.0383 15.6977 22.1879L15.6978 22.1878C16.499 20.7438 17.4577 19.556 18.4225 18.6879C19.7736 19.5917 21.3644 20.0784 22.9959 20.082L22.9985 20.082C24.6274 20.0769 26.2152 19.5903 27.5641 18.6879C28.5296 19.5561 29.4902 20.7427 30.2883 22.187L30.2887 22.1877C31.3154 24.039 31.8733 25.8925 31.9631 27.3793C32.0552 28.9062 31.6538 29.8633 31.0082 30.2221ZM35.7284 21.6249L35.6598 21.6269C34.4407 21.6052 33.2761 21.1116 32.4122 20.248C31.5284 19.3644 31.0318 18.1659 31.0316 16.9161C31.0314 15.6663 31.5277 14.4677 32.4113 13.5839C33.2931 12.7018 34.4887 12.2053 35.7358 12.2032C36.9587 12.2409 38.1191 12.7526 38.9717 13.6304C39.8259 14.51 40.3037 15.6878 40.3037 16.9139C40.3037 18.1401 39.8259 19.3179 38.9717 20.1975C38.1174 21.077 36.954 21.5891 35.7284 21.6249ZM33.6028 23.4862C34.2743 23.7134 34.9934 23.8411 35.746 23.8411L35.7476 23.8411C37.0794 23.8368 38.3782 23.4461 39.4882 22.7208C40.255 23.4215 41.0159 24.371 41.6542 25.5254L41.6537 25.5257C42.4912 27.0342 42.9438 28.5419 43.0163 29.7461C43.0912 30.9904 42.7607 31.7281 42.2781 31.9964L42.2781 31.9964L42.2718 32C42.0663 32.1182 41.8695 32.1342 41.6434 32.0622C41.3958 31.9833 41.1026 31.7932 40.764 31.4677L39.6499 30.3966L39.9255 31.9173C40.0497 32.6026 40.1252 33.3396 40.1252 34.1127C40.1252 35.8417 39.7852 37.3816 39.2613 38.4707C38.7196 39.5971 38.0711 40.0807 37.5247 40.0807C37.2259 40.0807 36.9854 39.9438 36.7662 39.5874C36.5325 39.2074 36.3565 38.6206 36.2389 37.8418L35.2501 37.8417C35.1318 38.6251 34.9551 39.2113 34.7211 39.5897C34.5022 39.9436 34.261 40.0807 33.9584 40.0807C33.4057 40.0807 32.7582 39.5968 32.2192 38.4716C31.6975 37.3826 31.3609 35.8418 31.3609 34.1098C31.3609 33.6241 31.3961 33.1558 31.4522 32.6989C31.7165 32.6266 31.9719 32.5234 32.2128 32.391L32.2143 32.3902C33.8548 31.4817 34.5868 29.5805 34.4412 27.2277C34.3729 26.0435 34.077 24.7665 33.6028 23.4862ZM13.7626 32.3853L14.0922 32.5685L14.1101 32.5506C14.2493 32.6085 14.3921 32.6573 14.5375 32.6967C14.594 33.1543 14.63 33.624 14.63 34.1127C14.63 35.8418 14.2907 37.3817 13.7672 38.4708C13.226 39.5969 12.5776 40.0807 12.0296 40.0807C11.7329 40.0807 11.4929 39.9444 11.2733 39.5874C11.0394 39.2071 10.8627 38.6199 10.7437 37.8409L9.755 37.8416C9.63671 38.6242 9.46001 39.2101 9.22598 39.5883C9.00708 39.9421 8.76583 40.0792 8.46327 40.0792C7.91045 40.0792 7.2629 39.5955 6.72399 38.471C6.20236 37.3825 5.86576 35.8425 5.86576 34.1112C5.86577 33.3755 5.93022 32.6412 6.05838 31.9167L6.3261 30.4033L5.21916 31.4695C4.88363 31.7927 4.59138 31.9814 4.34437 32.0597C4.11816 32.1315 3.92121 32.1152 3.71707 31.9982L3.7171 31.9981L3.71054 31.9945C3.22784 31.7273 2.89641 30.9908 2.97041 29.7465C3.04202 28.5424 3.49387 27.034 4.33139 25.5241C4.97299 24.3695 5.73363 23.4195 6.49939 22.7198C7.57831 23.4216 8.85868 23.8426 10.2464 23.8426L10.2483 23.8426C10.9807 23.8398 11.7049 23.7186 12.3936 23.4863C11.7543 25.2264 11.4727 26.9025 11.5696 28.3507C11.688 30.1196 12.3825 31.6181 13.7626 32.3853ZM25.2665 17.1786C24.5468 17.4674 23.7768 17.6101 23.0015 17.5986C21.4662 17.5756 20.0015 16.9498 18.9237 15.8562C17.8459 14.7625 17.2415 13.2889 17.241 11.7534C17.2404 10.218 17.8438 8.74391 18.9208 7.64953C19.9979 6.55516 21.4621 5.92828 22.9974 5.90428C23.7727 5.89216 24.5428 6.03437 25.2627 6.32265C25.9826 6.61092 26.6379 7.0395 27.1906 7.58344C27.7433 8.12738 28.1823 8.77581 28.4821 9.49101C28.7818 10.2062 28.9363 10.9739 28.9366 11.7493C28.9369 12.5248 28.7829 13.2926 28.4837 14.008C28.1844 14.7234 27.7459 15.3721 27.1936 15.9165C26.6412 16.4608 25.9862 16.8898 25.2665 17.1786Z" fill="#2B2B2B" stroke="white"/>
</svg>
