<svg width="468" height="353" viewBox="0 0 468 353" fill="none" xmlns="http://www.w3.org/2000/svg">
<path d="M172.021 131.022L84.5505 156.736L99.5971 207.998L187.068 182.284L172.021 131.022Z" fill="white"/>
<path d="M99.6021 208.536C99.5118 208.534 99.4233 208.51 99.3447 208.466C99.2258 208.392 99.1351 208.281 99.0873 208.149L84.0411 156.887C84.0012 156.751 84.0169 156.604 84.0849 156.479C84.1528 156.354 84.2675 156.261 84.4038 156.22L171.873 130.46C172.01 130.42 172.156 130.436 172.281 130.504C172.406 130.572 172.499 130.687 172.54 130.823L187.586 182.085C187.615 182.148 187.629 182.216 187.629 182.284C187.629 182.353 187.615 182.421 187.586 182.483C187.556 182.547 187.512 182.604 187.458 182.648C187.403 182.693 187.339 182.725 187.27 182.741L99.801 208.501L99.6021 208.536ZM85.2228 157.098L99.9648 207.33L186.416 181.921L171.662 131.678L85.2228 157.098Z" fill="#2B2B2B"/>
<path d="M137.99 177.448C137.928 177.46 137.864 177.46 137.803 177.448L84.3687 157.239C84.2977 157.218 84.2318 157.183 84.175 157.135C84.1181 157.088 84.0717 157.029 84.0385 156.963C84.0054 156.897 83.9862 156.825 83.9821 156.751C83.9781 156.677 83.9893 156.603 84.0151 156.534C84.0409 156.464 84.0807 156.401 84.132 156.348C84.1833 156.295 84.2451 156.252 84.3134 156.224C84.3817 156.196 84.4551 156.182 84.529 156.183C84.603 156.184 84.6758 156.201 84.7431 156.232L137.803 176.278L171.604 130.694C171.695 130.599 171.818 130.54 171.95 130.529C172.081 130.518 172.212 130.556 172.318 130.635C172.423 130.715 172.496 130.83 172.522 130.96C172.548 131.09 172.525 131.224 172.458 131.338L138.423 177.238C138.372 177.304 138.306 177.358 138.231 177.394C138.156 177.431 138.073 177.449 137.99 177.448Z" fill="#2B2B2B"/>
<path d="M186.954 182.354C186.892 182.366 186.829 182.366 186.767 182.354L145.665 166.828C145.6 166.804 145.54 166.766 145.489 166.719C145.438 166.671 145.397 166.614 145.368 166.55C145.339 166.486 145.323 166.418 145.321 166.348C145.319 166.278 145.33 166.209 145.355 166.143C145.38 166.078 145.417 166.018 145.464 165.967C145.512 165.916 145.569 165.875 145.633 165.846C145.697 165.818 145.765 165.802 145.835 165.799C145.905 165.797 145.974 165.808 146.039 165.833L187.2 181.359C187.267 181.381 187.328 181.417 187.38 181.463C187.432 181.51 187.475 181.567 187.504 181.631C187.534 181.694 187.55 181.763 187.552 181.833C187.554 181.903 187.542 181.973 187.516 182.038C187.471 182.146 187.391 182.235 187.289 182.292C187.187 182.35 187.07 182.371 186.954 182.354Z" fill="#2B2B2B"/>
<path d="M99.45 208.114C99.3318 208.119 99.2158 208.081 99.1224 208.009C99.0107 207.925 98.9368 207.8 98.9171 207.662C98.8974 207.524 98.9333 207.383 99.0171 207.271L125.19 171.945C125.231 171.889 125.284 171.842 125.343 171.806C125.403 171.77 125.469 171.746 125.538 171.736C125.607 171.725 125.678 171.729 125.745 171.746C125.813 171.762 125.877 171.792 125.933 171.834C125.989 171.875 126.036 171.928 126.072 171.987C126.108 172.047 126.132 172.114 126.142 172.183C126.153 172.252 126.149 172.322 126.132 172.39C126.116 172.458 126.086 172.521 126.044 172.577L99.9063 207.892C99.8559 207.965 99.7874 208.024 99.7075 208.063C99.6275 208.102 99.5388 208.12 99.45 208.114Z" fill="#2B2B2B"/>
<path d="M189.551 119.707L110.369 74.489L83.9096 120.894L163.092 166.111L189.551 119.707Z" fill="white"/>
<path d="M163.086 166.641C162.992 166.642 162.899 166.617 162.817 166.571L83.6433 121.351C83.5816 121.318 83.527 121.273 83.4828 121.219C83.4386 121.164 83.4057 121.102 83.3859 121.035C83.3332 120.903 83.3332 120.756 83.3859 120.625L109.898 74.222C109.971 74.0998 110.089 74.0107 110.227 73.9736C110.364 73.9365 110.511 73.9542 110.635 74.0229L189.809 119.243C189.87 119.277 189.924 119.323 189.967 119.378C190.011 119.433 190.042 119.497 190.061 119.564C190.08 119.632 190.084 119.702 190.075 119.772C190.066 119.841 190.043 119.908 190.008 119.969L163.554 166.372C163.482 166.496 163.365 166.589 163.227 166.629L163.086 166.641ZM84.6963 120.683L162.946 165.376L188.873 119.91L110.565 75.2173L84.6963 120.683Z" fill="#2B2B2B"/>
<path d="M132.9 127.545C132.796 127.542 132.694 127.51 132.607 127.452C132.52 127.394 132.451 127.313 132.409 127.217L109.875 74.702C109.82 74.5715 109.819 74.4246 109.871 74.2931C109.924 74.1616 110.026 74.0561 110.156 73.9995C110.22 73.9707 110.289 73.9551 110.36 73.9537C110.43 73.9523 110.5 73.9651 110.566 73.9913C110.631 74.0175 110.691 74.0566 110.741 74.1063C110.791 74.156 110.831 74.2152 110.858 74.2805L133.24 126.421L189.54 119.184C189.609 119.173 189.681 119.176 189.749 119.193C189.817 119.21 189.881 119.241 189.937 119.283C189.993 119.326 190.04 119.38 190.074 119.442C190.108 119.503 190.13 119.571 190.137 119.641C190.147 119.71 190.143 119.781 190.125 119.849C190.107 119.916 190.076 119.98 190.034 120.035C189.991 120.091 189.938 120.138 189.877 120.172C189.817 120.207 189.75 120.23 189.68 120.238L133.029 127.533L132.9 127.545Z" fill="#2B2B2B"/>
<path d="M163.309 166.266C163.204 166.266 163.101 166.234 163.014 166.176C162.927 166.118 162.858 166.035 162.817 165.938L145.478 125.531C145.423 125.4 145.422 125.253 145.474 125.122C145.527 124.99 145.629 124.885 145.759 124.828C145.889 124.773 146.036 124.772 146.167 124.825C146.299 124.877 146.404 124.979 146.461 125.109L163.8 165.517C163.855 165.647 163.856 165.794 163.804 165.926C163.751 166.057 163.649 166.163 163.519 166.219C163.454 166.252 163.382 166.268 163.309 166.266Z" fill="#2B2B2B"/>
<path d="M84.123 121.046C83.9928 121.038 83.8702 120.982 83.778 120.89C83.6858 120.797 83.6302 120.674 83.6217 120.544C83.6131 120.414 83.6521 120.285 83.7314 120.181C83.8107 120.078 83.9249 120.006 84.0528 119.981L127.635 114.36C127.705 114.35 127.775 114.355 127.843 114.372C127.91 114.39 127.974 114.421 128.029 114.463C128.085 114.506 128.131 114.559 128.166 114.62C128.201 114.681 128.223 114.748 128.232 114.817C128.249 114.958 128.211 115.1 128.126 115.213C128.041 115.327 127.915 115.403 127.776 115.426L84.24 121.034L84.123 121.046Z" fill="#2B2B2B"/>
<path d="M324.476 104.068H204.235V198.232H355.984V133.177C355.984 117.124 341.874 104.068 324.476 104.068Z" fill="#D9B4FD"/>
<path d="M355.984 198.747H204.224C204.083 198.744 203.949 198.686 203.85 198.585C203.752 198.485 203.697 198.349 203.697 198.208V104.068C203.697 103.928 203.752 103.794 203.851 103.696C203.95 103.597 204.084 103.541 204.224 103.541H324.476C342.143 103.541 356.522 116.854 356.522 133.212V198.232C356.514 198.37 356.453 198.499 356.354 198.595C356.254 198.69 356.122 198.744 355.984 198.747ZM204.75 197.693H355.446V133.177C355.446 117.405 341.558 104.572 324.476 104.572H204.75V197.693Z" fill="#2B2B2B"/>
<path d="M172.727 198.232H235.732V254.107C235.732 261.728 232.707 269.036 227.322 274.425C221.938 279.814 214.635 282.841 207.02 282.841H201.427C193.812 282.841 186.509 279.814 181.125 274.425C175.74 269.036 172.715 261.728 172.715 254.107V198.232H172.727Z" fill="white"/>
<path d="M207.02 283.38H201.439C193.681 283.38 186.241 280.296 180.756 274.806C175.271 269.316 172.189 261.871 172.189 254.107V198.232C172.192 198.09 172.25 197.955 172.35 197.854C172.45 197.754 172.585 197.696 172.727 197.693H235.732C235.873 197.696 236.009 197.754 236.109 197.854C236.209 197.955 236.267 198.09 236.27 198.232V254.107C236.27 261.871 233.188 269.316 227.703 274.806C222.217 280.296 214.777 283.38 207.02 283.38ZM173.265 198.747V254.084C173.271 261.56 176.242 268.728 181.524 274.014C186.806 279.3 193.969 282.273 201.439 282.279H207.02C214.482 282.267 221.635 279.295 226.911 274.014C232.188 268.733 235.158 261.575 235.17 254.107V198.747H173.265Z" fill="#2B2B2B"/>
<path d="M219.796 249.435H188.663C188.507 249.435 188.359 249.374 188.249 249.264C188.139 249.154 188.078 249.005 188.078 248.85C188.078 248.695 188.139 248.546 188.249 248.436C188.359 248.326 188.507 248.264 188.663 248.264H219.796C219.951 248.264 220.1 248.326 220.21 248.436C220.32 248.546 220.381 248.695 220.381 248.85C220.381 249.005 220.32 249.154 220.21 249.264C220.1 249.374 219.951 249.435 219.796 249.435Z" fill="#D1D3D4"/>
<path d="M269.556 151.443C272.884 151.443 275.582 148.743 275.582 145.413C275.582 142.082 272.884 139.382 269.556 139.382C266.229 139.382 263.531 142.082 263.531 145.413C263.531 148.743 266.229 151.443 269.556 151.443Z" fill="white"/>
<path d="M269.556 151.97C268.257 151.972 266.987 151.588 265.905 150.867C264.824 150.147 263.981 149.121 263.483 147.92C262.985 146.719 262.854 145.398 263.107 144.122C263.359 142.847 263.985 141.675 264.903 140.756C265.822 139.837 266.993 139.211 268.267 138.958C269.541 138.705 270.862 138.836 272.062 139.334C273.262 139.833 274.287 140.677 275.007 141.759C275.727 142.841 276.111 144.112 276.108 145.413C276.105 147.151 275.414 148.817 274.186 150.046C272.958 151.275 271.293 151.967 269.556 151.97ZM269.556 139.921C268.471 139.921 267.41 140.243 266.508 140.847C265.605 141.45 264.902 142.308 264.487 143.311C264.071 144.315 263.963 145.419 264.174 146.484C264.386 147.549 264.909 148.528 265.676 149.296C266.444 150.064 267.421 150.587 268.486 150.799C269.55 151.01 270.654 150.902 271.656 150.486C272.659 150.07 273.516 149.367 274.119 148.464C274.722 147.56 275.044 146.499 275.044 145.413C275.044 144.691 274.902 143.977 274.626 143.311C274.35 142.645 273.946 142.039 273.436 141.53C272.927 141.02 272.322 140.615 271.656 140.339C270.99 140.063 270.277 139.921 269.556 139.921Z" fill="#2B2B2B"/>
<path d="M269.556 139.921C269.414 139.918 269.279 139.86 269.179 139.76C269.079 139.66 269.021 139.524 269.018 139.383V65.1944C269.021 65.0536 269.079 64.9196 269.18 64.8211C269.28 64.7226 269.416 64.6674 269.556 64.6675C269.696 64.6675 269.83 64.723 269.929 64.8218C270.027 64.9206 270.083 65.0546 270.083 65.1944V139.383C270.083 139.523 270.028 139.659 269.929 139.759C269.831 139.86 269.697 139.918 269.556 139.921Z" fill="#2B2B2B"/>
<path d="M291.704 70.8029L269.556 80.779V65.1943H291.704V70.8029Z" fill="white"/>
<path d="M269.556 81.3645C269.444 81.3642 269.335 81.3316 269.24 81.2708C269.156 81.2196 269.087 81.1472 269.04 81.0609C268.993 80.9746 268.969 80.8774 268.971 80.779V65.1943C268.971 65.0391 269.033 64.8902 269.143 64.7804C269.252 64.6706 269.401 64.6089 269.556 64.6089H291.704C291.859 64.6119 292.006 64.6745 292.115 64.7837C292.224 64.8928 292.286 65.04 292.289 65.1943V70.7912C292.288 70.9052 292.255 71.0164 292.193 71.1119C292.13 71.2073 292.042 71.2829 291.938 71.3299L269.79 81.3059C269.718 81.3429 269.638 81.3629 269.556 81.3645ZM270.141 65.7798V79.8306L291.119 70.3814V65.6978L270.141 65.7798Z" fill="#2B2B2B"/>
<path d="M282.157 198.232H256.768V204.297H282.157V198.232Z" fill="white"/>
<path d="M282.157 204.824H256.768C256.628 204.824 256.492 204.769 256.392 204.67C256.291 204.572 256.233 204.438 256.23 204.297V198.232C256.233 198.09 256.291 197.955 256.391 197.854C256.491 197.754 256.626 197.696 256.768 197.693H282.157C282.299 197.696 282.434 197.754 282.534 197.854C282.635 197.955 282.692 198.09 282.695 198.232V204.297C282.692 204.438 282.634 204.572 282.534 204.67C282.433 204.769 282.298 204.824 282.157 204.824ZM257.306 203.758H281.619V198.747H257.306V203.758Z" fill="#2B2B2B"/>
<path d="M260.852 289.176V204.297H276.132V289.176" fill="white"/>
<path d="M276.12 289.714C275.979 289.711 275.845 289.653 275.747 289.552C275.649 289.452 275.593 289.316 275.593 289.175V204.871H261.378V289.175C261.389 289.252 261.384 289.33 261.363 289.405C261.341 289.479 261.304 289.548 261.253 289.606C261.203 289.665 261.14 289.712 261.07 289.744C260.999 289.777 260.923 289.793 260.846 289.793C260.768 289.793 260.692 289.777 260.621 289.744C260.551 289.712 260.489 289.665 260.438 289.606C260.388 289.548 260.35 289.479 260.329 289.405C260.307 289.33 260.302 289.252 260.313 289.175V204.297C260.312 204.226 260.325 204.155 260.351 204.089C260.377 204.023 260.417 203.963 260.467 203.913C260.518 203.862 260.578 203.823 260.644 203.796C260.71 203.77 260.78 203.757 260.851 203.758H276.12C276.191 203.757 276.262 203.77 276.328 203.796C276.394 203.823 276.454 203.862 276.504 203.913C276.554 203.963 276.594 204.023 276.62 204.089C276.647 204.155 276.66 204.226 276.658 204.297V289.175C276.658 289.318 276.601 289.455 276.501 289.556C276.4 289.657 276.263 289.714 276.12 289.714Z" fill="#2B2B2B"/>
<path d="M224.991 138.118L224.886 138.528L221.914 150.038L218.977 161.384L218.03 165.025L215.701 174.029L211.735 189.392L211.723 189.438L211.618 189.837L156.3 175.516L152.744 174.603L139.113 171.079L123.365 166.992L123.47 166.559L136.726 115.274L151.386 119.067L166.023 122.849L182.836 127.217L217.257 136.116L224.897 138.094L224.991 138.118Z" fill="white"/>
<path d="M211.618 190.375H211.489L123.224 167.531C123.088 167.492 122.972 167.403 122.9 167.281C122.828 167.158 122.806 167.013 122.838 166.875L122.955 166.442L136.2 115.145C136.242 115.011 136.329 114.895 136.445 114.817C136.51 114.788 136.58 114.773 136.65 114.773C136.721 114.773 136.791 114.788 136.855 114.817L225.026 137.638C225.177 137.677 225.31 137.768 225.401 137.895C225.494 138.015 225.536 138.166 225.518 138.317L216.216 174.158L212.133 189.965C212.106 190.082 212.041 190.186 211.947 190.261C211.854 190.335 211.737 190.375 211.618 190.375ZM124.02 166.618L211.244 189.192L224.359 138.504L137.101 115.918L124.02 166.618Z" fill="#2B2B2B"/>
<path d="M172.247 160.564C172.167 160.565 172.087 160.547 172.014 160.512C171.941 160.478 171.877 160.428 171.826 160.365L136.305 115.613C136.227 115.501 136.194 115.362 136.214 115.227C136.234 115.091 136.305 114.968 136.412 114.883C136.52 114.798 136.656 114.757 136.792 114.768C136.929 114.78 137.056 114.844 137.147 114.946L172.411 159.44L224.792 137.673C224.923 137.625 225.067 137.63 225.194 137.686C225.321 137.742 225.421 137.845 225.474 137.974C225.527 138.102 225.528 138.247 225.478 138.376C225.427 138.505 225.328 138.61 225.202 138.668L172.446 160.587C172.379 160.592 172.312 160.584 172.247 160.564Z" fill="#2B2B2B"/>
<path d="M211.77 189.942C211.691 189.941 211.614 189.922 211.543 189.888C211.472 189.853 211.41 189.804 211.36 189.743L183.994 155.307C183.916 155.194 183.883 155.056 183.903 154.92C183.923 154.784 183.994 154.661 184.102 154.576C184.209 154.491 184.345 154.45 184.482 154.462C184.618 154.474 184.745 154.537 184.837 154.639L212.156 189.075C212.201 189.131 212.235 189.194 212.255 189.262C212.275 189.331 212.281 189.402 212.274 189.473C212.266 189.544 212.245 189.612 212.21 189.675C212.176 189.737 212.13 189.792 212.074 189.837C211.984 189.898 211.879 189.935 211.77 189.942Z" fill="#2B2B2B"/>
<path d="M123.47 167.133C123.346 167.135 123.226 167.094 123.129 167.016C123.033 166.938 122.967 166.829 122.943 166.707C122.919 166.585 122.939 166.459 122.999 166.351C123.059 166.242 123.156 166.159 123.271 166.114L163.8 149.206C163.866 149.176 163.937 149.159 164.01 149.157C164.082 149.155 164.154 149.168 164.222 149.194C164.289 149.221 164.351 149.261 164.402 149.312C164.454 149.363 164.495 149.423 164.523 149.491C164.55 149.558 164.564 149.63 164.563 149.702C164.562 149.775 164.547 149.846 164.517 149.913C164.488 149.979 164.446 150.039 164.393 150.089C164.34 150.138 164.278 150.177 164.21 150.202L123.634 167.063C123.583 167.093 123.528 167.117 123.47 167.133Z" fill="#2B2B2B"/>
<path d="M235.732 134.348V164.463L233.942 164.124L220.533 161.466L206.903 158.749L194.103 156.243L179.864 153.422L177.021 152.86L176.272 152.707L172.762 151.993L158.722 149.206L154.393 148.352L157.002 135.12L159.003 125.039L164.771 95.9421L205.721 104.068L216.801 106.246C220.66 107.808 224.155 110.149 227.07 113.122C229.985 116.095 232.256 119.638 233.743 123.529C234.188 124.673 234.556 125.847 234.842 127.041H234.948V127.463C235.477 129.719 235.74 132.03 235.732 134.348Z" fill="white"/>
<path d="M235.732 165.037H235.638L233.848 164.697L154.218 148.89C154.079 148.859 153.957 148.775 153.878 148.656C153.837 148.6 153.807 148.535 153.793 148.466C153.779 148.397 153.78 148.326 153.797 148.258L164.174 95.8485C164.203 95.7089 164.285 95.5862 164.403 95.5072C164.522 95.4282 164.667 95.3994 164.806 95.427L216.906 105.766C220.848 107.343 224.422 109.717 227.406 112.739C230.389 115.761 232.718 119.366 234.246 123.329C234.666 124.428 235.021 125.55 235.31 126.69C235.409 126.781 235.467 126.907 235.474 127.041V127.392C236.013 129.667 236.284 131.998 236.282 134.336V164.451C236.283 164.531 236.266 164.609 236.231 164.68C236.197 164.751 236.146 164.813 236.083 164.861C235.993 164.964 235.867 165.027 235.732 165.037ZM155.002 147.93L235.17 163.854V134.348C235.171 132.068 234.904 129.797 234.374 127.58C234.369 127.533 234.369 127.486 234.374 127.439V127.322C234.34 127.271 234.313 127.216 234.293 127.158C234.014 125.992 233.659 124.846 233.228 123.728C231.769 119.904 229.537 116.422 226.673 113.501C223.808 110.58 220.372 108.281 216.579 106.75L165.099 96.5393L155.002 147.93Z" fill="#2B2B2B"/>
<path d="M202.726 139.137C202.649 139.138 202.573 139.122 202.503 139.092C202.432 139.062 202.369 139.017 202.316 138.961L164.303 96.2934C164.257 96.2412 164.222 96.1803 164.199 96.1144C164.176 96.0484 164.167 95.9786 164.171 95.9091C164.176 95.8395 164.194 95.7714 164.224 95.7088C164.255 95.6462 164.298 95.5902 164.35 95.5441C164.402 95.4979 164.463 95.4626 164.529 95.4399C164.595 95.4173 164.664 95.4079 164.734 95.4123C164.804 95.4166 164.872 95.4347 164.934 95.4653C164.997 95.4959 165.053 95.5386 165.099 95.5909L202.855 137.942L233.509 123.084C233.638 123.025 233.785 123.018 233.92 123.064C234.054 123.109 234.167 123.204 234.234 123.329C234.295 123.46 234.302 123.609 234.253 123.745C234.205 123.881 234.106 123.992 233.977 124.055L202.948 139.031C202.883 139.083 202.807 139.12 202.726 139.137Z" fill="#2B2B2B"/>
<path d="M235.732 157.122C235.656 157.119 235.582 157.102 235.513 157.069C235.445 157.037 235.384 156.991 235.334 156.934L214.18 133.177C214.104 133.069 214.071 132.937 214.086 132.806C214.101 132.675 214.163 132.554 214.261 132.466C214.359 132.378 214.486 132.329 214.618 132.328C214.749 132.328 214.877 132.375 214.976 132.462L236.129 156.197C236.179 156.246 236.218 156.304 236.245 156.368C236.272 156.433 236.286 156.502 236.286 156.571C236.286 156.641 236.272 156.71 236.245 156.774C236.218 156.839 236.179 156.897 236.129 156.946C236.079 157.001 236.017 157.045 235.949 157.075C235.88 157.105 235.806 157.121 235.732 157.122Z" fill="#2B2B2B"/>
<path d="M154.44 148.457C154.339 148.457 154.241 148.429 154.156 148.375C154.071 148.321 154.003 148.244 153.96 148.153C153.899 148.025 153.891 147.879 153.937 147.745C153.983 147.611 154.08 147.501 154.206 147.438L193.752 128.282C193.816 128.24 193.888 128.212 193.964 128.2C194.039 128.188 194.116 128.192 194.19 128.213C194.264 128.233 194.333 128.269 194.392 128.317C194.451 128.366 194.498 128.427 194.532 128.496C194.565 128.565 194.584 128.64 194.586 128.717C194.588 128.793 194.574 128.869 194.545 128.94C194.515 129.011 194.471 129.074 194.415 129.126C194.359 129.178 194.293 129.218 194.22 129.243L154.639 148.398C154.578 148.434 154.51 148.454 154.44 148.457Z" fill="#2B2B2B"/>
<path d="M235.743 139.382H158.652V192.811H235.743V139.382Z" fill="white"/>
<path d="M235.732 193.349H158.652C158.51 193.346 158.375 193.289 158.275 193.188C158.174 193.088 158.117 192.953 158.114 192.811V139.383C158.114 139.24 158.171 139.103 158.271 139.002C158.372 138.901 158.509 138.844 158.652 138.844H235.732C235.803 138.842 235.873 138.855 235.939 138.882C236.005 138.908 236.065 138.948 236.116 138.998C236.166 139.048 236.206 139.108 236.232 139.175C236.259 139.241 236.271 139.311 236.27 139.383V192.811C236.27 192.881 236.256 192.951 236.229 193.017C236.202 193.082 236.162 193.141 236.112 193.191C236.062 193.241 236.003 193.281 235.938 193.308C235.872 193.335 235.802 193.349 235.732 193.349ZM159.179 192.272H235.229V139.909H159.179V192.272Z" fill="#2B2B2B"/>
<path d="M204.224 174.346C204.106 174.346 203.991 174.309 203.896 174.24L158.266 139.816C158.193 139.757 158.136 139.681 158.102 139.593C158.065 139.529 158.045 139.457 158.044 139.383C158.042 139.311 158.055 139.241 158.081 139.175C158.108 139.108 158.147 139.048 158.198 138.998C158.248 138.948 158.308 138.908 158.374 138.882C158.44 138.855 158.511 138.842 158.582 138.844C158.657 138.845 158.73 138.86 158.799 138.891C158.867 138.921 158.929 138.965 158.98 139.02L204.153 173.14L235.416 149.569C235.471 149.517 235.536 149.477 235.608 149.452C235.679 149.427 235.755 149.417 235.831 149.423C235.907 149.429 235.98 149.451 236.046 149.488C236.113 149.525 236.171 149.575 236.216 149.636C236.262 149.696 236.294 149.766 236.311 149.84C236.328 149.914 236.329 149.991 236.314 150.065C236.299 150.14 236.269 150.21 236.225 150.272C236.181 150.334 236.125 150.386 236.059 150.424L204.539 174.228C204.449 174.3 204.339 174.341 204.224 174.346Z" fill="#2B2B2B"/>
<path d="M235.732 182.261C235.618 182.26 235.507 182.223 235.416 182.155L214.356 166.301C214.243 166.215 214.169 166.089 214.149 165.948C214.13 165.808 214.166 165.666 214.25 165.552C214.292 165.495 214.345 165.447 214.405 165.411C214.466 165.374 214.533 165.351 214.603 165.341C214.672 165.331 214.743 165.335 214.812 165.353C214.88 165.372 214.944 165.403 214.999 165.447L236.001 181.301C236.088 181.37 236.151 181.464 236.182 181.571C236.213 181.677 236.211 181.791 236.175 181.896C236.139 182.001 236.072 182.093 235.982 182.158C235.892 182.223 235.784 182.259 235.673 182.261H235.732Z" fill="#2B2B2B"/>
<path d="M158.64 192.893C158.53 192.889 158.424 192.851 158.336 192.785C158.248 192.719 158.182 192.627 158.148 192.523C158.113 192.418 158.112 192.305 158.143 192.2C158.175 192.094 158.238 192.001 158.324 191.932L193.424 165.435C193.538 165.368 193.673 165.345 193.802 165.371C193.932 165.397 194.048 165.47 194.127 165.575C194.207 165.681 194.244 165.812 194.234 165.944C194.223 166.076 194.164 166.199 194.068 166.29L158.968 192.787C158.872 192.855 158.758 192.892 158.64 192.893Z" fill="#2B2B2B"/>
<path d="M202.278 144.094L120.088 183.574L143.19 231.741L225.379 192.262L202.278 144.094Z" fill="white"/>
<path d="M143.173 232.293C143.073 232.292 142.974 232.263 142.89 232.21C142.805 232.156 142.737 232.079 142.693 231.989L119.597 183.818C119.545 183.687 119.545 183.54 119.597 183.408C119.647 183.277 119.743 183.169 119.866 183.104L202.059 143.633C202.188 143.573 202.335 143.566 202.469 143.614C202.603 143.663 202.712 143.762 202.773 143.89L225.81 192.049C225.863 192.181 225.863 192.328 225.81 192.459C225.787 192.525 225.752 192.586 225.706 192.638C225.66 192.691 225.604 192.733 225.541 192.764L143.407 232.235C143.334 232.271 143.254 232.291 143.173 232.293ZM120.791 183.841L143.419 231.04L224.64 192.026L202.024 144.886L120.791 183.841Z" fill="#2B2B2B"/>
<path d="M176.062 195.433H175.956L119.972 184.122C119.903 184.11 119.838 184.084 119.779 184.046C119.721 184.007 119.671 183.958 119.632 183.9C119.592 183.843 119.565 183.778 119.551 183.709C119.537 183.641 119.537 183.57 119.551 183.502C119.563 183.432 119.59 183.365 119.628 183.306C119.667 183.247 119.718 183.196 119.777 183.156C119.836 183.117 119.902 183.09 119.972 183.077C120.042 183.064 120.113 183.065 120.182 183.08L175.769 194.309L201.802 143.879C201.876 143.771 201.987 143.694 202.114 143.663C202.241 143.632 202.375 143.647 202.491 143.708C202.608 143.768 202.698 143.868 202.745 143.99C202.793 144.112 202.794 144.247 202.749 144.37L176.541 195.152C176.496 195.239 176.426 195.312 176.342 195.361C176.257 195.411 176.16 195.436 176.062 195.433Z" fill="#2B2B2B"/>
<path d="M225.178 192.424H225.073L182.005 183.724C181.866 183.696 181.743 183.614 181.664 183.495C181.585 183.377 181.556 183.232 181.584 183.092C181.597 183.022 181.623 182.956 181.662 182.896C181.701 182.837 181.751 182.786 181.81 182.747C181.869 182.707 181.936 182.68 182.005 182.667C182.075 182.654 182.147 182.655 182.216 182.671L225.284 191.37C225.413 191.398 225.528 191.472 225.606 191.579C225.685 191.686 225.721 191.818 225.708 191.95C225.695 192.082 225.633 192.205 225.536 192.294C225.438 192.384 225.311 192.434 225.178 192.436V192.424Z" fill="#2B2B2B"/>
<path d="M142.986 231.895C142.901 231.892 142.817 231.872 142.74 231.837C142.677 231.804 142.621 231.76 142.575 231.706C142.529 231.652 142.494 231.59 142.472 231.522C142.451 231.455 142.442 231.384 142.448 231.313C142.454 231.242 142.474 231.174 142.506 231.111L162.63 192.049C162.697 191.924 162.81 191.83 162.946 191.786C163.081 191.743 163.228 191.753 163.355 191.815C163.481 191.883 163.575 191.996 163.618 192.131C163.662 192.266 163.652 192.413 163.589 192.541L143.419 231.602C143.378 231.685 143.317 231.755 143.241 231.806C143.165 231.858 143.077 231.888 142.986 231.895Z" fill="#2B2B2B"/>
<path d="M260.852 217.552L276.132 228.804V204.297H260.852V217.552Z" fill="#2B2B2B"/>
<path d="M276.12 229.389C275.999 229.39 275.88 229.354 275.781 229.284L260.489 218.032C260.417 217.977 260.358 217.906 260.318 217.825C260.277 217.743 260.256 217.654 260.255 217.563V204.297C260.255 204.142 260.316 203.993 260.426 203.883C260.536 203.773 260.685 203.712 260.84 203.712H276.12C276.275 203.712 276.424 203.773 276.534 203.883C276.643 203.993 276.705 204.142 276.705 204.297V228.804C276.708 228.913 276.679 229.02 276.623 229.113C276.568 229.207 276.486 229.282 276.389 229.331C276.306 229.373 276.213 229.394 276.12 229.389ZM261.425 217.259L275.535 227.657V204.883H261.437L261.425 217.259Z" fill="#2B2B2B"/>
</svg>
