<svg width="327" height="246" viewBox="0 0 327 246" fill="none" xmlns="http://www.w3.org/2000/svg">
<path d="M94.1187 228.743L93.2031 201.783L113.453 198.723L114.687 229.045" fill="white"/>
<path d="M114.687 229.461C114.794 229.457 114.895 229.411 114.968 229.333C115.042 229.255 115.082 229.152 115.079 229.045L113.845 198.715C113.844 198.657 113.83 198.6 113.805 198.548C113.779 198.496 113.743 198.45 113.698 198.413C113.654 198.376 113.603 198.35 113.548 198.335C113.493 198.321 113.435 198.32 113.379 198.331L93.1213 201.391C93.0232 201.407 92.9342 201.458 92.871 201.535C92.8078 201.611 92.7747 201.708 92.778 201.807L93.6936 228.735C93.6957 228.788 93.7084 228.841 93.7309 228.89C93.7534 228.938 93.7853 228.982 93.8248 229.019C93.8643 229.055 93.9105 229.083 93.961 229.102C94.0114 229.12 94.065 229.129 94.1187 229.126C94.1724 229.124 94.2251 229.112 94.2739 229.089C94.3227 229.067 94.3666 229.035 94.403 228.996C94.4395 228.956 94.4678 228.91 94.4863 228.86C94.5049 228.809 94.5133 228.756 94.5111 228.702L93.62 202.15L113.068 199.213L114.278 229.078C114.285 229.181 114.33 229.279 114.406 229.35C114.482 229.422 114.583 229.461 114.687 229.461Z" fill="#231F20"/>
<path d="M192.938 217.099L169.77 189.682L149.055 194.741L175.452 221.693" fill="white"/>
<path d="M175.452 222.109C175.56 222.107 175.662 222.063 175.738 221.986C175.776 221.949 175.806 221.905 175.827 221.856C175.848 221.807 175.858 221.754 175.858 221.701C175.858 221.648 175.848 221.595 175.827 221.546C175.806 221.497 175.776 221.452 175.738 221.415L149.848 194.969L169.623 190.139L192.627 217.368C192.7 217.448 192.8 217.498 192.908 217.507C193.016 217.516 193.123 217.484 193.208 217.417C193.29 217.346 193.341 217.245 193.351 217.137C193.36 217.029 193.326 216.921 193.257 216.838L170.04 189.421C169.991 189.362 169.927 189.319 169.855 189.296C169.782 189.273 169.705 189.271 169.631 189.29L148.916 194.341C148.847 194.361 148.784 194.397 148.733 194.447C148.681 194.497 148.643 194.558 148.621 194.627C148.602 194.696 148.602 194.769 148.619 194.839C148.636 194.909 148.671 194.974 148.72 195.026L175.117 221.954C175.157 222.003 175.208 222.043 175.266 222.07C175.324 222.096 175.388 222.11 175.452 222.109V222.109Z" fill="#231F20"/>
<path d="M103.152 79.0757C103.152 79.0757 134.642 87.6924 134.34 88.9164C134.037 90.1404 127.89 112.808 127.89 112.808L108.27 107.912L103.152 79.0757Z" fill="#D9B4FD"/>
<path d="M102.514 78.888C102.514 78.888 112.512 81.5644 118.644 85.0894C124.775 88.6144 123.091 126.182 123.091 126.182L77.6624 135.321C77.6624 135.321 69.0133 110.923 69.6019 99.7852C70.1905 88.6471 77.0902 72.8497 102.514 78.888Z" fill="#D9B4FD"/>
<path d="M125.135 107.872C125.186 107.883 125.239 107.883 125.29 107.872C125.392 107.828 125.473 107.747 125.516 107.645C125.559 107.543 125.56 107.428 125.519 107.325C122.551 100.038 118.08 88.9246 117.957 88.1494C117.956 88.0951 117.944 88.0416 117.922 87.992C117.9 87.9423 117.868 87.8976 117.829 87.8603C117.789 87.8231 117.742 87.7941 117.691 87.7751C117.641 87.7561 117.586 87.7474 117.532 87.7496C117.42 87.7538 117.314 87.8012 117.236 87.8819C117.158 87.9625 117.115 88.0701 117.115 88.1821C117.115 88.8838 122.445 102.054 124.742 107.643C124.779 107.715 124.835 107.775 124.905 107.815C124.974 107.856 125.054 107.876 125.135 107.872Z" fill="#231F20"/>
<path d="M99.7349 74.3104L102.94 83.9226C102.94 83.9226 103.021 89.6345 96.6693 89.1367C94.7932 88.9693 92.9778 88.3875 91.3546 87.4335C89.7315 86.4794 88.3412 85.1771 87.2844 83.6207L84.603 66.3872C85.5749 65.5411 86.1933 64.3618 86.3361 63.0825C86.4767 62.1249 86.449 61.1502 86.2544 60.2021C85.9557 58.9289 85.4796 57.7039 84.8401 56.5628C87.8606 56.0923 90.6311 54.6104 92.6963 52.3605C93.1871 51.7625 93.6456 51.1387 94.0697 50.4919C94.2659 50.19 98.2962 52.0749 98.7213 52.287C100.798 53.2007 102.569 54.6904 103.822 56.5791C104.654 58.2112 105.18 59.9809 105.376 61.8014C105.852 64.303 106.093 66.8436 106.095 69.39C106.046 74.2451 99.7349 74.3104 99.7349 74.3104Z" fill="white"/>
<path d="M97.4623 89.5448C98.9589 89.6164 100.425 89.1043 101.55 88.1168C102.653 86.996 103.279 85.4935 103.299 83.9227C103.303 83.8847 103.303 83.8464 103.299 83.8084L100.25 74.6613C101.803 74.5144 106.422 73.7229 106.463 69.4146C106.46 66.8489 106.216 64.2892 105.735 61.7688C105.524 59.8943 104.97 58.0744 104.1 56.3997C102.838 54.4503 101.038 52.9062 98.9175 51.9526C94.2168 49.6352 93.9062 50.1085 93.7918 50.3206C93.7918 50.3206 92.9742 51.5935 92.451 52.1484C90.4446 54.3439 87.7431 55.7844 84.7993 56.2283C84.7421 56.2391 84.6883 56.2633 84.6423 56.2989C84.5963 56.3345 84.5595 56.3804 84.5347 56.433C84.51 56.4855 84.4981 56.5432 84.5 56.6012C84.502 56.6593 84.5177 56.716 84.5458 56.7669C85.1695 57.8772 85.6345 59.0692 85.9274 60.3082C86.107 61.2169 86.1319 62.1493 86.001 63.0662C85.877 64.2491 85.3107 65.3418 84.415 66.1262C84.3593 66.1643 84.3158 66.2177 84.2897 66.28C84.2636 66.3422 84.256 66.4106 84.2679 66.477L86.9493 83.7105C86.9569 83.7594 86.9735 83.8064 86.9983 83.8492C88.0773 85.4667 89.5081 86.8204 91.1839 87.8093C92.8598 88.7983 94.7376 89.3971 96.6775 89.5611C96.931 89.5448 97.2007 89.5448 97.4623 89.5448ZM102.58 83.988C102.541 85.331 102.002 86.6113 101.068 87.5783C100.469 88.0741 99.7717 88.4368 99.0217 88.6422C98.2717 88.8477 97.4865 88.8911 96.7184 88.7696C94.915 88.603 93.1698 88.0448 91.6052 87.1343C90.0405 86.2237 88.6942 84.9828 87.6605 83.4984L85.02 66.5423C85.9666 65.6405 86.568 64.437 86.7204 63.1397C86.8695 62.1532 86.8474 61.1485 86.655 60.1695C86.392 59.0324 85.9797 57.9349 85.4287 56.9056C88.3485 56.3616 91.0115 54.8836 93.0151 52.6951C93.4402 52.2137 94.0697 51.2835 94.3149 50.9244C95.7775 51.4237 97.2057 52.0179 98.5905 52.7033C100.583 53.5975 102.283 55.0341 103.495 56.8485C104.31 58.4485 104.831 60.1813 105.032 61.9646C105.502 64.4425 105.742 66.9581 105.752 69.4798C105.703 73.9024 100.029 74.0167 99.7677 74.0248C99.7097 74.0251 99.6527 74.0394 99.6015 74.0663C99.5502 74.0933 99.5063 74.1323 99.4734 74.1799C99.4382 74.2272 99.4147 74.2822 99.4047 74.3403C99.3948 74.3985 99.3987 74.4581 99.4161 74.5144L102.58 83.988Z" fill="#231F20"/>
<path d="M87.9875 64.8451C87.6776 64.1599 87.16 63.5891 86.5078 63.2132C85.8767 62.8859 85.1935 62.6705 84.4886 62.5767C84.1096 62.4871 83.7149 62.4871 83.3359 62.5767C83.0744 62.6611 82.8325 62.7971 82.6247 62.9765C82.094 63.3458 81.7139 63.8931 81.5537 64.5187C81.4873 65.0364 81.5461 65.5625 81.7254 66.0528C81.8789 66.597 82.1043 67.1184 82.3958 67.6031C82.6968 68.0809 83.09 68.4942 83.5525 68.819C84.0149 69.1438 84.5374 69.3736 85.0897 69.4951C85.6419 69.6166 86.2128 69.6273 86.7692 69.5266C87.3256 69.426 87.8564 69.2159 88.3308 68.9087" fill="white"/>
<path d="M86.001 69.8552C86.8908 69.856 87.7621 69.601 88.5107 69.1209C88.583 69.074 88.6338 69.0006 88.6522 68.9166C88.6706 68.8326 88.655 68.7447 88.6088 68.6721C88.5863 68.6355 88.5567 68.6038 88.5217 68.5789C88.4866 68.5541 88.4469 68.5366 88.4049 68.5274C88.3629 68.5183 88.3195 68.5177 88.2772 68.5257C88.235 68.5338 88.1948 68.5502 88.1592 68.5742C87.7194 68.8571 87.2279 69.0503 86.713 69.1427C86.198 69.2352 85.6699 69.2249 85.1589 69.1127C84.145 68.8713 83.2652 68.2449 82.7064 67.3665C82.4286 66.9049 82.2141 66.4082 82.0688 65.8896C81.9101 65.4511 81.8542 64.9821 81.9053 64.5187C82.0545 63.9712 82.3897 63.4923 82.8536 63.1642C83.0334 63.0152 83.2382 62.8992 83.4585 62.8215C83.7898 62.749 84.1328 62.749 84.4641 62.8215C85.1312 62.9139 85.7779 63.118 86.377 63.4253C86.975 63.7714 87.4451 64.3008 87.7177 64.9349C87.7338 64.9745 87.7576 65.0104 87.7879 65.0406C87.8181 65.0708 87.8542 65.0946 87.8939 65.1105C87.9335 65.1265 87.976 65.1344 88.0188 65.1337C88.0615 65.1329 88.1037 65.1236 88.1428 65.1062C88.1832 65.0912 88.22 65.0679 88.2509 65.0379C88.2818 65.0079 88.3061 64.9717 88.3223 64.9318C88.3384 64.8919 88.3461 64.8491 88.3447 64.8061C88.3434 64.763 88.3331 64.7208 88.3145 64.6819C87.9834 63.9133 87.4091 63.2741 86.6795 62.8623C86.0168 62.5195 85.301 62.2905 84.5622 62.185C84.1317 62.0871 83.6846 62.0871 83.2542 62.185C82.9577 62.2864 82.6812 62.4382 82.4367 62.6338C81.8446 63.0552 81.4239 63.6749 81.2513 64.38C81.1721 64.9466 81.2338 65.5239 81.4311 66.0609C81.5918 66.6337 81.8283 67.1825 82.1342 67.6929C82.4592 68.2071 82.883 68.6521 83.3811 69.0022C83.8792 69.3523 84.4417 69.6006 85.0363 69.7328C85.3524 69.8087 85.6759 69.8498 86.001 69.8552Z" fill="#231F20"/>
<path d="M101.37 79.3858C99.0376 79.6207 96.6955 79.0442 94.7401 77.7538C91.6335 75.5914 91.47 72.8579 91.47 72.8579C94.0727 73.9826 96.904 74.4801 99.735 74.3104L101.37 79.3858Z" fill="#231F20"/>
<path d="M100.438 79.7939C100.771 79.7977 101.105 79.7786 101.435 79.7367C101.487 79.7297 101.537 79.7114 101.581 79.683C101.626 79.6547 101.663 79.617 101.691 79.5727C101.719 79.5284 101.737 79.4784 101.744 79.4264C101.75 79.3744 101.746 79.3216 101.73 79.2716L100.095 74.2044C100.069 74.1299 100.02 74.0653 99.9557 74.0199C99.8911 73.9745 99.8139 73.9506 99.7349 73.9514C96.9664 74.0862 94.2044 73.5779 91.6662 72.4664C91.611 72.4364 91.5492 72.4207 91.4863 72.4207C91.4235 72.4207 91.3617 72.4364 91.3065 72.4664C91.2543 72.5011 91.2119 72.5486 91.1833 72.6043C91.1547 72.66 91.1408 72.722 91.143 72.7846C91.143 72.907 91.3392 75.7548 94.552 77.9987C96.2873 79.1767 98.3393 79.8025 100.438 79.7939V79.7939ZM100.904 79.0595C98.8014 79.1652 96.7206 78.5931 94.9689 77.4275C93.5184 76.4866 92.4562 75.0556 91.9768 73.3966C94.3688 74.327 96.9236 74.7682 99.4897 74.694L100.904 79.0595Z" fill="#231F20"/>
<path d="M95.4758 57.8193C95.4758 57.8193 99.5633 61.8992 98.991 62.911C98.4188 63.9229 96.1707 63.727 96.1707 63.727" fill="white"/>
<path d="M96.465 64.1187C97.168 64.1187 98.7376 64.0126 99.2935 63.0987C99.9639 62.0053 97.0209 58.8638 95.721 57.5664C95.6875 57.5321 95.6475 57.5048 95.6033 57.4862C95.559 57.4676 95.5115 57.458 95.4635 57.458C95.4155 57.458 95.368 57.4676 95.3238 57.4862C95.2796 57.5048 95.2395 57.5321 95.206 57.5664C95.1386 57.635 95.1009 57.7273 95.1009 57.8234C95.1009 57.9195 95.1386 58.0118 95.206 58.0804C97.2825 60.1693 98.9175 62.299 98.6804 62.7234C98.2962 63.368 96.7184 63.4169 96.2279 63.3925C96.1322 63.39 96.0391 63.4241 95.9677 63.4878C95.8963 63.5515 95.852 63.64 95.8437 63.7352C95.8415 63.7823 95.8486 63.8295 95.8647 63.8739C95.8808 63.9183 95.9055 63.9591 95.9373 63.9939C95.9692 64.0288 96.0077 64.057 96.0506 64.077C96.0934 64.0971 96.1398 64.1084 96.187 64.1105L96.465 64.1187Z" fill="#231F20"/>
<path d="M101.746 66.118L93.7917 66.012C93.7917 66.012 94.1514 71.3974 98.7785 71.7238C103.406 72.0502 101.746 66.118 101.746 66.118Z" fill="#231F20"/>
<path d="M93.5955 57.8276C93.4913 57.6032 93.3301 57.4098 93.1279 57.2667C92.9257 57.1235 92.6895 57.0356 92.4428 57.0117C91.5272 56.8648 91.0613 57.9337 91.0613 57.9337" fill="white"/>
<path d="M91.0612 58.2601C91.1318 58.2614 91.2012 58.2421 91.2608 58.2043C91.3204 58.1666 91.3675 58.1122 91.3964 58.0479C91.3964 58.0479 91.7561 57.2319 92.3856 57.338C92.5698 57.3561 92.7462 57.4211 92.898 57.5268C93.0497 57.6326 93.1717 57.7755 93.2521 57.9419C93.2854 58.0322 93.3528 58.1059 93.44 58.1471C93.5271 58.1883 93.627 58.1937 93.7181 58.1622C93.8061 58.1307 93.8784 58.0662 93.9196 57.9824C93.9608 57.8986 93.9677 57.8021 93.9389 57.7134C93.8203 57.4207 93.6248 57.1655 93.373 56.9745C93.1212 56.7835 92.8224 56.6638 92.5082 56.6281C91.331 56.4323 90.7587 57.7052 90.7342 57.7623C90.7153 57.8057 90.7052 57.8524 90.7044 57.8997C90.7036 57.947 90.7122 57.994 90.7297 58.038C90.7471 58.082 90.7731 58.1221 90.8062 58.156C90.8392 58.1899 90.8787 58.217 90.9223 58.2356L91.0612 58.2601Z" fill="#231F20"/>
<path d="M100.961 57.134C100.857 56.9095 100.696 56.7161 100.494 56.573C100.291 56.4299 100.055 56.342 99.8085 56.318C98.8929 56.163 98.4269 57.2401 98.4269 57.2401" fill="white"/>
<path d="M98.427 57.5745C98.4985 57.5752 98.5685 57.5546 98.6282 57.5154C98.6879 57.4761 98.7346 57.42 98.7622 57.3542C98.7622 57.3542 99.1219 56.5382 99.7513 56.6525C99.936 56.6689 100.113 56.7333 100.265 56.8393C100.417 56.9452 100.539 57.089 100.618 57.2563C100.651 57.3467 100.719 57.4204 100.806 57.4616C100.893 57.5028 100.993 57.5082 101.084 57.4766C101.172 57.4434 101.245 57.3774 101.286 57.2923C101.327 57.2072 101.334 57.1095 101.305 57.0197C101.185 56.728 100.989 56.4737 100.737 56.2829C100.486 56.0921 100.188 55.9718 99.874 55.9344C98.6968 55.7386 98.1245 57.0197 98.1 57.0686C98.0799 57.1118 98.0689 57.1587 98.0675 57.2063C98.0662 57.2539 98.0745 57.3013 98.0921 57.3456C98.1097 57.3899 98.1361 57.4301 98.1698 57.4639C98.2035 57.4976 98.2437 57.5242 98.288 57.5419C98.3312 57.5634 98.3788 57.5746 98.427 57.5745V57.5745Z" fill="#231F20"/>
<path d="M78.5699 134.742L85.0772 221.407L193.249 199.335L121.341 125.701L78.5699 134.742Z" fill="#231F20"/>
<path d="M125.135 71.1688L252.174 92.3027L196.29 35.6084L125.135 71.1688Z" fill="#231F20"/>
<path d="M252.174 92.7106C252.255 92.7111 252.334 92.6877 252.401 92.6435C252.469 92.5992 252.521 92.536 252.553 92.4618C252.584 92.3876 252.593 92.3058 252.578 92.2267C252.563 92.1475 252.525 92.0746 252.468 92.0171L196.584 35.3146C196.523 35.254 196.444 35.2143 196.359 35.2011C196.274 35.1879 196.187 35.2019 196.11 35.2411L124.988 70.8097C124.908 70.8451 124.843 70.9063 124.803 70.9834C124.763 71.0604 124.75 71.1488 124.767 71.234C124.775 71.3187 124.809 71.3989 124.864 71.4633C124.92 71.5276 124.995 71.573 125.077 71.5931L252.109 92.7025L252.174 92.7106ZM196.2 36.1061L250.972 91.6907L126.443 70.9729L196.2 36.1061Z" fill="#231F20"/>
<path d="M113.404 156.235L233.241 177.752L252.011 93.0536L125.037 71.9197L113.404 156.235Z" fill="#231F20"/>
<path d="M233.233 178.16C233.326 178.162 233.417 178.131 233.491 178.073C233.564 178.015 233.614 177.933 233.633 177.842L252.436 93.135C252.458 93.0281 252.438 92.9168 252.379 92.8249C252.348 92.7769 252.307 92.7361 252.259 92.7052C252.211 92.6742 252.157 92.6538 252.101 92.6454L125.077 71.5115C124.968 71.4948 124.857 71.5211 124.767 71.5849C124.722 71.6177 124.685 71.6592 124.656 71.7069C124.628 71.7546 124.61 71.8075 124.603 71.8624L112.97 156.178C112.962 156.23 112.964 156.283 112.977 156.334C112.989 156.385 113.012 156.433 113.043 156.476C113.074 156.518 113.113 156.554 113.158 156.581C113.203 156.608 113.253 156.627 113.305 156.635L233.167 178.152L233.233 178.16ZM251.52 93.3798L232.922 177.287L113.861 155.9L125.38 72.4091L251.52 93.3798Z" fill="#231F20"/>
<path d="M223.177 149.723C223.177 149.723 245.25 81.7196 255.877 61.0427L137.561 28.8767L130.203 134.138L223.177 149.723Z" fill="#D9B4FD"/>
<path d="M235.154 72.9395C235.245 72.9399 235.333 72.9095 235.405 72.8531C235.476 72.7968 235.526 72.7179 235.546 72.6294C235.574 72.5255 235.559 72.415 235.506 72.3218C235.452 72.2286 235.364 72.1603 235.26 72.1317L148.254 49.6188C148.145 49.5917 148.03 49.6087 147.935 49.6661C147.839 49.7235 147.77 49.8165 147.743 49.9248C147.716 50.033 147.733 50.1475 147.79 50.2431C147.848 50.3388 147.941 50.4077 148.049 50.4347L235.056 72.9232L235.154 72.9395Z" fill="white"/>
<path d="M231.475 87.1784C231.568 87.1801 231.658 87.149 231.729 87.0908C231.801 87.0326 231.85 86.9509 231.867 86.8602C231.879 86.8082 231.881 86.7543 231.872 86.7017C231.862 86.6492 231.843 86.599 231.814 86.5541C231.785 86.5092 231.747 86.4706 231.703 86.4405C231.659 86.4104 231.609 86.3894 231.557 86.3788L147.313 67.5133C147.205 67.4906 147.092 67.5118 146.999 67.5722C146.907 67.6327 146.842 67.7274 146.819 67.8356C146.796 67.9438 146.817 68.0566 146.878 68.1492C146.938 68.2418 147.033 68.3066 147.142 68.3293L231.352 87.1703L231.475 87.1784Z" fill="white"/>
<path d="M224.257 100.503C224.351 100.505 224.443 100.473 224.517 100.413C224.59 100.354 224.64 100.27 224.657 100.177C224.668 100.125 224.668 100.07 224.658 100.018C224.648 99.9652 224.627 99.9151 224.598 99.8704C224.568 99.8257 224.53 99.7872 224.485 99.7572C224.441 99.7272 224.391 99.7063 224.338 99.6956L143.774 84.0777C143.722 84.0671 143.668 84.0669 143.616 84.0772C143.564 84.0874 143.514 84.108 143.47 84.1376C143.426 84.1672 143.388 84.2053 143.359 84.2497C143.329 84.294 143.309 84.3438 143.3 84.3959C143.288 84.4485 143.287 84.503 143.296 84.556C143.306 84.609 143.326 84.6595 143.356 84.7045C143.386 84.7495 143.424 84.788 143.47 84.8177C143.515 84.8474 143.565 84.8677 143.618 84.8774L224.183 100.495L224.257 100.503Z" fill="white"/>
<path d="M220.422 117.508C220.531 117.517 220.638 117.482 220.721 117.412C220.804 117.342 220.855 117.241 220.864 117.133C220.873 117.025 220.838 116.918 220.767 116.835C220.697 116.752 220.596 116.701 220.488 116.692L144.068 104.281C143.96 104.264 143.849 104.29 143.76 104.355C143.671 104.419 143.611 104.516 143.594 104.624C143.576 104.732 143.603 104.843 143.667 104.932C143.732 105.02 143.829 105.08 143.937 105.097L220.357 117.5L220.422 117.508Z" fill="white"/>
<path d="M180.136 125.815L252.011 93.0536L233.241 177.752L113.404 156.235L125.037 71.9197L180.136 125.815Z" fill="white"/>
<path d="M233.233 178.16C233.326 178.162 233.417 178.131 233.491 178.073C233.564 178.015 233.614 177.933 233.633 177.842L252.436 93.1351C252.452 93.0608 252.447 92.9834 252.422 92.9117C252.396 92.84 252.351 92.7768 252.292 92.7293C252.232 92.6817 252.161 92.6518 252.085 92.6427C252.009 92.6337 251.933 92.646 251.864 92.6782L180.242 125.317L125.323 71.5933C125.269 71.5392 125.201 71.5014 125.126 71.484C125.052 71.4667 124.974 71.4706 124.901 71.4952C124.829 71.5199 124.765 71.5643 124.717 71.6235C124.668 71.6826 124.637 71.7542 124.628 71.8299L112.995 156.145C112.987 156.197 112.989 156.25 113.001 156.301C113.014 156.352 113.036 156.401 113.067 156.443C113.099 156.485 113.138 156.521 113.183 156.549C113.228 156.576 113.278 156.594 113.33 156.602L233.167 178.152L233.233 178.16ZM251.438 93.7634L232.922 177.287L113.861 155.9L125.306 72.7764L179.85 126.109C179.91 126.166 179.986 126.204 180.067 126.217C180.149 126.23 180.233 126.218 180.308 126.182L251.438 93.7634Z" fill="#231F20"/>
<path d="M113.395 156.235L233.233 177.752L180.128 125.815L113.395 156.235Z" fill="white"/>
<path d="M233.233 178.16C233.308 178.161 233.383 178.141 233.448 178.102C233.513 178.063 233.566 178.007 233.601 177.94C233.64 177.863 233.654 177.775 233.639 177.69C233.624 177.604 233.582 177.526 233.519 177.467L180.381 125.521C180.321 125.464 180.246 125.427 180.164 125.414C180.082 125.401 179.998 125.412 179.924 125.448L113.199 155.86C113.12 155.897 113.055 155.957 113.012 156.034C112.97 156.11 112.952 156.197 112.962 156.284C112.973 156.369 113.01 156.449 113.069 156.512C113.127 156.575 113.204 156.618 113.289 156.635L233.159 178.16H233.233ZM180.046 126.305L231.998 177.116L114.761 156.064L180.046 126.305Z" fill="#231F20"/>
<path d="M113.395 156.235L233.233 177.752L180.128 125.815L113.395 156.235Z" fill="white"/>
<path d="M233.233 178.16C233.308 178.161 233.383 178.141 233.448 178.102C233.513 178.063 233.566 178.007 233.601 177.94C233.64 177.863 233.654 177.775 233.639 177.69C233.624 177.604 233.582 177.526 233.519 177.467L180.381 125.521C180.321 125.464 180.246 125.427 180.164 125.414C180.082 125.401 179.998 125.412 179.924 125.448L113.199 155.86C113.12 155.897 113.055 155.957 113.012 156.034C112.97 156.11 112.952 156.197 112.962 156.284C112.973 156.369 113.01 156.449 113.069 156.512C113.127 156.575 113.204 156.618 113.289 156.635L233.159 178.16H233.233ZM180.046 126.305L231.998 177.116L114.761 156.064L180.046 126.305Z" fill="#231F20"/>
<path d="M121.734 39.5251C121.734 39.5251 123.475 46.053 128.977 46.2162C128.977 46.2162 123.173 47.8481 121.955 53.2826C121.414 51.7748 120.521 50.4175 119.349 49.3234C118.178 48.2292 116.762 47.4298 115.218 46.9914C116.798 46.318 118.205 45.2966 119.333 44.0036C120.462 42.7106 121.282 41.1796 121.734 39.5251V39.5251Z" fill="#B4B6B7"/>
<path d="M279.724 89.1286C279.724 89.1286 275.334 95.3954 279.225 100.242C279.225 100.242 273.593 96.4235 268.001 99.3365C268.911 97.7735 269.433 96.0164 269.526 94.2111C269.618 92.4059 269.278 90.6047 268.532 88.9573C268.532 88.9573 273.315 91.8458 279.724 89.1286Z" fill="#B4B6B7"/>
<path d="M240.345 38.032C240.345 38.032 239.421 48.9498 247.702 52.1566C247.702 52.1566 237.982 51.4712 233.151 59.0924C233.151 59.0924 233.494 50.7368 226.333 45.8654C226.398 45.8654 234.394 46.0123 240.345 38.032Z" fill="#B4B6B7"/>
<path d="M83.0089 92.98C83.0089 92.98 146.537 125.138 156.208 126.982C165.879 128.826 177.381 125.603 176.923 128.361C176.466 131.119 170.939 132.49 170.939 132.49C170.939 132.49 188.426 135.248 187.51 137.092C186.594 138.936 175.076 136.627 175.076 136.627C175.076 136.627 189.349 140.764 186.128 142.6C182.907 144.436 172.779 140.307 172.779 140.307C172.779 140.307 187.968 148.116 183.823 148.573C179.678 149.03 172.313 144.901 172.313 144.901C172.313 144.901 183.823 150.874 179.22 151.331C174.618 151.788 106.03 127.439 83.0089 113.657" fill="white"/>
<path d="M179.082 151.747H179.261C180.12 151.657 180.61 151.363 180.7 150.874C180.839 150.139 179.817 149.111 178.395 148.067C180.139 148.743 182.003 149.056 183.872 148.989C184.502 148.916 184.861 148.679 184.935 148.263C185.164 147.039 181.142 144.452 177.406 142.339C180.569 143.261 184.469 144.028 186.333 142.967C186.546 142.878 186.725 142.725 186.845 142.529C186.966 142.332 187.021 142.103 187.003 141.874C186.848 140.584 183.529 139.075 180.332 137.916C183.684 138.332 187.273 138.471 187.878 137.28C187.932 137.175 187.961 137.059 187.961 136.941C187.961 136.823 187.932 136.707 187.878 136.602C187.06 134.97 177.128 133.118 172.689 132.376C174.446 131.715 177.005 130.417 177.34 128.434C177.374 128.267 177.368 128.094 177.323 127.93C177.277 127.765 177.194 127.614 177.079 127.488C176.261 126.582 173.76 126.729 169.95 126.949C165.928 127.178 160.958 127.463 156.298 126.59C146.798 124.779 83.8428 92.9393 83.2133 92.621C83.1155 92.5723 83.0025 92.5638 82.8986 92.5974C82.7946 92.6309 82.708 92.7039 82.6574 92.8006C82.6089 92.8969 82.6006 93.0085 82.6343 93.111C82.668 93.2134 82.741 93.2984 82.8372 93.3473C85.4369 94.661 146.529 125.562 156.142 127.39C160.868 128.288 165.952 127.994 170.04 127.765C173.089 127.586 175.967 127.423 176.515 128.026C176.546 128.063 176.568 128.107 176.578 128.154C176.588 128.201 176.586 128.25 176.572 128.296C176.228 130.344 172.362 131.739 170.89 132.106C170.782 132.112 170.68 132.16 170.607 132.24C170.534 132.321 170.496 132.427 170.502 132.535C170.507 132.643 170.556 132.745 170.636 132.817C170.717 132.89 170.823 132.928 170.931 132.922C178.46 134.105 186.823 135.999 187.199 137.002C186.717 137.9 180.602 137.337 175.215 136.26C175.161 136.247 175.105 136.245 175.051 136.253C174.996 136.262 174.944 136.281 174.897 136.31C174.85 136.339 174.809 136.376 174.777 136.421C174.744 136.466 174.721 136.516 174.708 136.57C174.695 136.623 174.693 136.679 174.701 136.733C174.71 136.788 174.729 136.84 174.758 136.887C174.787 136.934 174.825 136.975 174.87 137.007C174.914 137.04 174.965 137.063 175.019 137.076C180.324 138.61 186.12 140.935 186.251 142.02C186.251 142.127 186.087 142.241 185.981 142.306C183.48 143.734 175.754 141.115 172.991 139.981C172.892 139.942 172.782 139.942 172.683 139.981C172.584 140.021 172.504 140.096 172.46 140.193C172.417 140.288 172.413 140.397 172.448 140.495C172.483 140.594 172.554 140.676 172.648 140.723C178.15 143.555 184.093 147.186 184.191 148.157C184.075 148.188 183.958 148.213 183.839 148.23C180.749 148.573 175.664 146.182 173.531 145.105L172.566 144.591C172.47 144.542 172.359 144.532 172.257 144.564C172.154 144.596 172.069 144.668 172.018 144.762C171.992 144.808 171.976 144.859 171.969 144.911C171.963 144.964 171.967 145.017 171.982 145.068C171.996 145.119 172.021 145.166 172.054 145.208C172.086 145.249 172.127 145.283 172.174 145.309C172.239 145.309 172.615 145.562 173.204 145.864C177.021 147.936 180.079 150.139 179.956 150.76C179.956 150.76 179.809 150.915 179.237 150.972H179.032C176.58 150.972 159.813 145.652 138.157 137.492C126.32 133.037 97.2825 121.768 83.2133 113.347C83.1677 113.314 83.1156 113.29 83.0604 113.278C83.0052 113.265 82.948 113.265 82.8925 113.275C82.837 113.286 82.7843 113.309 82.7379 113.341C82.6914 113.373 82.6522 113.415 82.6227 113.463C82.5931 113.511 82.574 113.565 82.5663 113.621C82.5587 113.677 82.5628 113.734 82.5784 113.788C82.5939 113.842 82.6206 113.893 82.6567 113.936C82.6928 113.98 82.7376 114.015 82.7882 114.041C104.991 127.292 172.615 151.747 179.082 151.747Z" fill="#231F20"/>
<path d="M94.7482 120.16C94.7482 120.16 104.558 97.1906 103.651 96.8805C102.743 96.5704 84.0308 84.3226 82.4694 85.2446C80.9079 86.1667 75.1119 103.931 76.9512 109.137C78.7906 114.342 94.7482 120.16 94.7482 120.16Z" fill="#D9B4FD"/>
<path d="M92.2957 120.275C92.3839 120.274 92.4699 120.247 92.5416 120.196C92.6134 120.144 92.6675 120.072 92.6963 119.989C92.73 119.883 92.7206 119.768 92.6701 119.669C92.6197 119.57 92.5322 119.494 92.4265 119.459C92.2876 119.41 78.668 114.824 73.2888 107.953C73.2546 107.91 73.2122 107.874 73.164 107.848C73.1159 107.821 73.0629 107.804 73.0082 107.798C72.9534 107.792 72.8981 107.797 72.8452 107.812C72.7923 107.828 72.7431 107.853 72.7002 107.888C72.6555 107.921 72.618 107.962 72.5899 108.01C72.5619 108.058 72.5438 108.111 72.5369 108.166C72.5301 108.221 72.5345 108.277 72.5499 108.33C72.5653 108.383 72.5914 108.433 72.6267 108.476C78.1611 115.542 91.5927 120.071 92.1568 120.258C92.2018 120.272 92.2488 120.277 92.2957 120.275V120.275Z" fill="#231F20"/>
<path d="M81.4148 70.3612C81.5144 70.359 81.6101 70.3213 81.6843 70.2548C81.7585 70.1883 81.8064 70.0975 81.8192 69.9988C81.8321 69.9001 81.8091 69.8 81.7543 69.7168C81.6996 69.6336 81.6169 69.5727 81.521 69.5452C79.9948 69.0907 78.5904 68.2997 77.4116 67.2305C76.2329 66.1613 75.3101 64.8413 74.7113 63.3682C73.5199 60.3573 73.2357 57.0646 73.8938 53.8947C74.3513 50.8303 75.6855 47.9629 77.736 45.637C78.7625 44.5111 80.0315 43.6323 81.4476 43.067C82.8636 42.5016 84.3898 42.2643 85.911 42.373L86.5078 42.4546C86.9537 42.5292 87.4046 42.5701 87.8567 42.577C88.408 42.5505 88.9555 42.4713 89.4917 42.3404L89.8432 42.267C92.7247 41.6918 95.705 41.8526 98.5077 42.7342C101.31 43.6158 103.844 45.1898 105.875 47.3101C107.905 49.4303 109.366 52.0282 110.122 54.8626C110.878 57.6969 110.905 60.676 110.199 63.5232C110.003 64.3392 109.529 65.6366 108.523 65.759C108.468 65.764 108.414 65.7802 108.365 65.8066C108.316 65.833 108.273 65.869 108.239 65.9126C108.204 65.9561 108.179 66.0062 108.165 66.0598C108.15 66.1133 108.147 66.1693 108.155 66.2241C108.161 66.2789 108.178 66.332 108.205 66.3802C108.232 66.4284 108.268 66.4708 108.311 66.505C108.355 66.5392 108.404 66.5644 108.458 66.5792C108.511 66.594 108.566 66.5982 108.621 66.5913C109.741 66.4526 110.591 65.4408 111.016 63.7272C111.764 60.7385 111.741 57.6097 110.951 54.6319C110.161 51.6542 108.629 48.9242 106.498 46.6962C104.367 44.4681 101.706 42.8143 98.7628 41.8887C95.8193 40.963 92.6891 40.7956 89.6633 41.402L89.2955 41.4755C88.8028 41.5995 88.2988 41.6733 87.7913 41.6958C87.3859 41.685 86.9816 41.6468 86.5814 41.5815C86.3688 41.5815 86.1644 41.5163 85.9519 41.4999C84.3031 41.3676 82.646 41.6176 81.1101 42.2306C79.5743 42.8435 78.2012 43.8027 77.0983 45.0331C74.922 47.474 73.5021 50.4928 73.0108 53.7233C72.3269 57.0573 72.6367 60.5182 73.9019 63.6783C74.5485 65.2685 75.5457 66.6928 76.8194 67.8456C78.0932 68.9983 79.6107 69.8497 81.2594 70.3367L81.4148 70.3612Z" fill="#231F20"/>
<path d="M87.7994 42.1364C87.7994 42.1364 83.5484 38.9867 76.6406 40.6676C69.7327 42.3485 67.1249 54.9146 73.5749 61.6546C73.5749 61.6546 72.5694 43.2869 87.7994 42.1364Z" fill="#231F20"/>
<path d="M63.2172 81.5318H63.2581C66.5284 81.3308 69.6621 80.1507 72.2506 78.1455C73.5482 77.1237 74.5922 75.8168 75.3011 74.3265C76.0101 72.8362 76.3649 71.2027 76.3381 69.5532C76.3371 69.4974 76.3247 69.4425 76.3017 69.3917C76.2786 69.3409 76.2454 69.2954 76.204 69.2579C76.1627 69.2204 76.114 69.1918 76.0612 69.1739C76.0083 69.1559 75.9523 69.1489 75.8966 69.1534C75.8411 69.1554 75.7866 69.1686 75.7363 69.1919C75.6859 69.2153 75.6408 69.2485 75.6035 69.2896C75.5661 69.3306 75.5374 69.3787 75.519 69.431C75.5005 69.4832 75.4927 69.5387 75.496 69.594C75.5191 71.1104 75.1919 72.6118 74.5397 73.9816C73.8875 75.3514 72.928 76.5528 71.7355 77.4927C69.7385 79.0605 67.3709 80.089 64.8604 80.4792C65.5499 79.7081 65.9889 78.7465 66.1193 77.7212C66.2533 76.1752 66.015 74.6197 65.4244 73.1843C64.4389 70.7462 63.2379 68.4005 61.8356 66.175C59.8 62.7071 57.8789 59.435 57.4538 55.6326C57.2049 53.4362 57.4986 51.2124 58.3093 49.1555C59.12 47.0986 60.4229 45.271 62.1044 43.8326C63.7858 42.3942 65.7945 41.3886 67.955 40.9037C70.1156 40.4189 72.3622 40.4694 74.4987 41.051C74.607 41.0789 74.722 41.064 74.8195 41.0092C74.917 40.9545 74.9895 40.8642 75.0219 40.7572C75.0367 40.7042 75.0409 40.6487 75.0341 40.5941C75.0273 40.5394 75.0097 40.4867 74.9823 40.4389C74.9549 40.391 74.9183 40.3491 74.8746 40.3155C74.8309 40.2819 74.7809 40.2573 74.7276 40.2432C72.4563 39.6243 70.0678 39.5702 67.7707 40.0857C65.4737 40.6011 63.3382 41.6704 61.5508 43.2C59.7635 44.7296 58.3788 46.673 57.5178 48.8602C56.6568 51.0474 56.3457 53.4119 56.6118 55.7468C57.0614 59.7206 59.1215 63.2212 61.108 66.6157C62.4637 68.7923 63.6263 71.0831 64.5824 73.4617C65.1383 74.766 65.3629 76.187 65.2364 77.5988C65.1731 78.2622 64.9389 78.898 64.5564 79.4442C64.1739 79.9905 63.6562 80.4286 63.0537 80.7158C62.9636 80.7532 62.8891 80.8205 62.8428 80.9062C62.7965 80.992 62.7811 81.091 62.7994 81.1868C62.8176 81.2825 62.8683 81.369 62.9428 81.4318C63.0174 81.4947 63.1114 81.53 63.209 81.5318H63.2172Z" fill="#231F20"/>
<path d="M100.732 100.291C100.837 100.31 100.944 100.288 101.034 100.231C101.124 100.174 101.189 100.086 101.216 99.9839C101.244 99.8816 101.232 99.7727 101.184 99.6786C101.135 99.5844 101.053 99.5119 100.953 99.4752L84.1534 89.1368C84.0578 89.0791 83.9433 89.0614 83.8347 89.0873C83.7261 89.1133 83.6321 89.1809 83.573 89.2755C83.5433 89.3224 83.5233 89.3748 83.5143 89.4296C83.5052 89.4844 83.5072 89.5404 83.5201 89.5944C83.5331 89.6484 83.5567 89.6992 83.5896 89.7439C83.6226 89.7887 83.6642 89.8264 83.7119 89.8548L100.512 100.193C100.574 100.246 100.651 100.28 100.732 100.291V100.291Z" fill="#231F20"/>
<path d="M283.476 130.784C283.576 130.784 283.672 130.745 283.742 130.674C283.813 130.604 283.852 130.509 283.852 130.409C283.852 130.309 283.813 130.214 283.742 130.144C283.672 130.073 283.576 130.034 283.476 130.034L258.134 128.655C258.083 128.649 258.032 128.654 257.984 128.669C257.935 128.685 257.89 128.71 257.853 128.744C257.815 128.778 257.784 128.82 257.764 128.866C257.743 128.913 257.733 128.963 257.733 129.014C257.729 129.112 257.763 129.208 257.829 129.281C257.894 129.354 257.986 129.399 258.085 129.405L283.427 130.784H283.476Z" fill="#B4B6B7"/>
<path d="M222.711 208.441C222.784 208.443 222.855 208.423 222.916 208.384C222.999 208.329 223.058 208.244 223.079 208.146C223.101 208.049 223.083 207.947 223.03 207.862L210.596 188.564C210.571 188.519 210.537 188.48 210.496 188.449C210.455 188.418 210.408 188.396 210.358 188.383C210.308 188.371 210.256 188.369 210.206 188.378C210.155 188.386 210.107 188.405 210.063 188.433C210.02 188.461 209.983 188.497 209.955 188.54C209.926 188.583 209.907 188.631 209.898 188.681C209.889 188.732 209.89 188.784 209.902 188.834C209.914 188.884 209.936 188.931 209.967 188.972L222.36 208.27C222.397 208.328 222.45 208.375 222.512 208.405C222.574 208.435 222.643 208.448 222.711 208.441V208.441Z" fill="#B4B6B7"/>
<path d="M269.669 177.197C269.736 177.197 269.801 177.178 269.859 177.144C269.916 177.109 269.964 177.06 269.996 177.001C270.02 176.959 270.036 176.912 270.041 176.863C270.047 176.814 270.043 176.765 270.029 176.717C270.016 176.67 269.992 176.626 269.961 176.588C269.93 176.55 269.892 176.519 269.849 176.496L250.972 165.92C250.884 165.873 250.781 165.862 250.685 165.89C250.589 165.917 250.507 165.981 250.457 166.067C250.433 166.11 250.416 166.157 250.41 166.206C250.404 166.256 250.407 166.305 250.42 166.353C250.433 166.401 250.455 166.446 250.485 166.485C250.516 166.524 250.553 166.557 250.596 166.581L269.472 177.189C269.536 177.209 269.604 177.212 269.669 177.197Z" fill="#B4B6B7"/>
<path d="M129.721 30.6146C129.781 30.6145 129.841 30.5997 129.895 30.5716C129.948 30.5435 129.994 30.5029 130.029 30.4532C130.063 30.4035 130.085 30.3463 130.093 30.2863C130.1 30.2263 130.093 30.1654 130.072 30.1087L125.47 17.7385C125.43 17.6522 125.36 17.584 125.272 17.5477C125.184 17.5113 125.086 17.5095 124.997 17.5426C124.908 17.5757 124.834 17.6412 124.792 17.726C124.749 17.8108 124.74 17.9085 124.767 17.9996L129.369 30.4025C129.4 30.4687 129.45 30.5243 129.513 30.5621C129.575 30.5999 129.648 30.6182 129.721 30.6146V30.6146Z" fill="#B4B6B7"/>
<path d="M60.2088 105.513C60.2972 105.514 60.3831 105.484 60.4506 105.427C60.5182 105.37 60.5629 105.291 60.5767 105.203C60.5849 105.155 60.5833 105.105 60.5721 105.056C60.5609 105.008 60.5403 104.963 60.5114 104.923C60.4825 104.882 60.446 104.848 60.4039 104.822C60.3618 104.796 60.3149 104.779 60.266 104.771L40.4744 101.507C40.376 101.493 40.2759 101.517 40.1951 101.575C40.1143 101.633 40.0591 101.719 40.0411 101.817C40.0329 101.866 40.0345 101.916 40.0457 101.964C40.0569 102.012 40.0775 102.058 40.1064 102.098C40.1352 102.138 40.1718 102.172 40.2139 102.198C40.256 102.224 40.3028 102.242 40.3517 102.249L60.1516 105.473L60.2088 105.513Z" fill="#B4B6B7"/>
<path d="M60.6666 187.307C60.7238 187.308 60.7804 187.295 60.8316 187.27C60.8827 187.244 60.9271 187.207 60.9609 187.161L73.3951 171.543C73.4555 171.463 73.4824 171.363 73.4702 171.264C73.458 171.165 73.4076 171.075 73.3297 171.012C73.2918 170.981 73.2481 170.958 73.2011 170.944C73.1541 170.93 73.1048 170.926 73.0561 170.931C73.0073 170.936 72.9601 170.951 72.9173 170.975C72.8744 170.999 72.8368 171.031 72.8065 171.069L60.3723 186.695C60.3414 186.734 60.3185 186.779 60.3051 186.827C60.2916 186.875 60.2878 186.925 60.2939 186.974C60.3 187.024 60.3158 187.071 60.3405 187.114C60.3652 187.158 60.3982 187.195 60.4377 187.226C60.5034 187.277 60.5836 187.305 60.6666 187.307Z" fill="#B4B6B7"/>
<path d="M254.177 54.6451C254.267 54.6462 254.354 54.6142 254.422 54.5554L263.308 46.9341C263.377 46.8627 263.415 46.7677 263.415 46.6689C263.415 46.5701 263.377 46.4751 263.308 46.4037C263.277 46.3652 263.238 46.3334 263.194 46.3104C263.15 46.2873 263.101 46.2735 263.052 46.2696C263.002 46.2658 262.952 46.2721 262.905 46.2882C262.858 46.3042 262.814 46.3296 262.777 46.3629L253.891 53.9842C253.852 54.0156 253.82 54.0546 253.797 54.0987C253.774 54.1427 253.76 54.191 253.757 54.2407C253.753 54.2903 253.759 54.3401 253.775 54.3872C253.791 54.4343 253.817 54.4776 253.85 54.5146C253.889 54.5625 253.939 54.5997 253.996 54.6225C254.054 54.6454 254.116 54.6532 254.177 54.6451V54.6451Z" fill="#B4B6B7"/>
<path d="M97.7239 149.193C97.7924 149.193 97.8598 149.177 97.9201 149.144C97.9671 149.119 98.0088 149.085 98.0425 149.044C98.0763 149.003 98.1015 148.956 98.1167 148.905C98.132 148.854 98.1369 148.801 98.1312 148.748C98.1255 148.695 98.1093 148.644 98.0836 148.597L89.181 132.359C89.1381 132.28 89.0694 132.217 88.9863 132.182C88.9032 132.146 88.8105 132.14 88.7232 132.163C88.6354 132.184 88.5573 132.234 88.5022 132.306C88.4471 132.377 88.4184 132.465 88.4207 132.555V146.949C88.4207 147.057 88.4638 147.161 88.5405 147.238C88.6171 147.314 88.7211 147.357 88.8295 147.357C88.9379 147.357 89.0419 147.314 89.1185 147.238C89.1952 147.161 89.2382 147.057 89.2382 146.949V134.146L97.4133 148.989C97.4452 149.045 97.49 149.093 97.544 149.128C97.598 149.164 97.6597 149.186 97.7239 149.193Z" fill="white"/>
</svg>
