<svg width="406" height="306" viewBox="0 0 406 306" fill="none" xmlns="http://www.w3.org/2000/svg">
<path d="M268.041 255.769L304.104 236.037C295.812 223.38 295.192 216.123 293.782 206.105C289.234 173.939 257.333 153.396 232.526 136.476C230.438 135.008 228.273 133.653 226.04 132.416C223.412 131.005 216.073 126.63 214.155 130.67C212.318 134.547 216.885 141.622 219.179 144.464C217.671 142.211 216.002 140.071 214.185 138.059C213.622 137.309 212.843 136.749 211.952 136.455C210.288 136.08 208.684 137.663 208.43 139.348C208.323 141.065 208.749 142.774 209.648 144.241C211.498 147.902 213.807 151.313 216.52 154.391C214.703 152.361 207.963 144.596 208.105 152.421C208.223 157.356 210.28 162.045 213.83 165.474C212.277 164.103 210.602 162.877 208.826 161.81C208.576 161.615 208.288 161.473 207.981 161.394C207.673 161.316 207.353 161.302 207.04 161.353C206.706 161.514 206.419 161.759 206.208 162.063C205.996 162.367 205.867 162.72 205.832 163.089C204.715 168.103 207.496 171.686 209.415 175.98C210.897 179.299 211.77 182.465 213.657 185.683C220.519 197.335 227.644 205.415 235.49 216.427C237.51 219.178 267.96 255.819 268.041 255.769Z" fill="white"/>
<path d="M268.092 256.276C267.757 256.276 267.077 255.505 262.804 250.359C259.901 246.888 256.024 242.239 252.085 237.468C248.411 233.043 236.343 218.457 235.074 216.671C232.435 212.966 229.877 209.566 227.39 206.308C222.238 199.799 217.493 192.979 213.18 185.886C212.053 183.866 211.093 181.758 210.308 179.583C209.882 178.456 209.425 177.299 208.907 176.132C208.511 175.249 208.075 174.376 207.649 173.533C205.964 170.214 204.37 167.068 205.304 162.927C205.343 162.467 205.508 162.027 205.78 161.655C206.052 161.283 206.421 160.992 206.847 160.816C207.229 160.741 207.623 160.747 208.002 160.834C208.382 160.922 208.738 161.088 209.049 161.323C209.557 161.638 210.064 161.962 210.572 162.338C208.663 159.376 207.61 155.944 207.527 152.421C207.527 150.249 207.963 148.991 208.978 148.595C209.821 148.27 210.866 148.595 212.023 149.417C210.971 147.831 210.016 146.184 209.161 144.484C208.204 142.931 207.76 141.117 207.892 139.298C207.984 138.735 208.187 138.196 208.49 137.713C208.794 137.23 209.191 136.813 209.658 136.486C209.995 136.24 210.379 136.067 210.787 135.98C211.194 135.893 211.616 135.892 212.023 135.978C212.927 136.248 213.727 136.786 214.317 137.521C213.302 135.075 212.713 132.446 213.657 130.416C213.85 129.996 214.131 129.623 214.482 129.321C214.832 129.02 215.243 128.798 215.687 128.67C218.58 127.727 223.219 130.264 225.716 131.624L226.294 131.939C228.544 133.192 230.726 134.564 232.831 136.05L235.724 138.019C259.86 154.441 289.884 174.873 294.289 206.024L294.533 207.719C295.791 216.762 296.776 223.959 304.541 235.743C304.58 235.801 304.607 235.867 304.619 235.936C304.631 236.005 304.628 236.076 304.611 236.144C304.594 236.212 304.562 236.276 304.519 236.331C304.475 236.386 304.42 236.431 304.358 236.463L268.295 256.205C268.236 256.248 268.165 256.273 268.092 256.276V256.276ZM207.415 161.749C207.338 161.739 207.259 161.739 207.182 161.749C206.695 161.902 206.451 162.571 206.329 163.12C205.487 166.906 206.989 169.89 208.593 173.046C209.019 173.899 209.476 174.782 209.882 175.695C210.399 176.873 210.897 178.05 211.303 179.187C212.063 181.315 213 183.376 214.104 185.348C218.381 192.399 223.089 199.178 228.202 205.648C230.689 208.927 233.277 212.317 235.906 216.032C238.078 219.077 265.341 251.78 268.153 255.079L303.383 235.794C295.771 224.04 294.776 216.864 293.518 207.81L293.274 206.115C288.94 175.411 259.109 155.111 235.145 138.81L232.242 136.78C230.17 135.314 228.022 133.959 225.807 132.72L225.218 132.396C223.026 131.208 218.469 128.711 215.982 129.523C215.681 129.618 215.405 129.775 215.17 129.985C214.936 130.195 214.749 130.453 214.622 130.741C213.414 133.279 215.322 137.694 217.565 141.196C218.276 142.129 218.956 143.073 219.595 144.048C219.67 144.156 219.699 144.289 219.677 144.418C219.654 144.547 219.581 144.662 219.473 144.738C219.368 144.817 219.235 144.851 219.105 144.834C218.974 144.817 218.855 144.75 218.773 144.647C218.682 144.525 217.829 143.459 216.824 141.906C215.863 140.647 214.848 139.433 213.779 138.262C213.281 137.594 212.596 137.089 211.81 136.811C211.538 136.758 211.258 136.761 210.988 136.821C210.717 136.88 210.462 136.994 210.237 137.156C209.883 137.405 209.583 137.721 209.353 138.087C209.123 138.453 208.968 138.861 208.897 139.287C208.816 140.897 209.226 142.494 210.074 143.865C211.903 147.471 214.181 150.83 216.855 153.863V153.863C216.937 153.965 216.976 154.094 216.965 154.224C216.954 154.355 216.893 154.476 216.795 154.562C216.697 154.648 216.569 154.694 216.438 154.688C216.308 154.683 216.184 154.627 216.093 154.533V154.533V154.472C211.922 149.762 210.176 149.113 209.445 149.397C208.897 149.61 208.613 150.625 208.643 152.259C208.675 154.65 209.179 157.01 210.127 159.205C211.074 161.4 212.447 163.386 214.165 165.048C214.256 165.14 214.307 165.264 214.31 165.393C214.313 165.523 214.266 165.648 214.179 165.744C214.092 165.84 213.972 165.899 213.843 165.909C213.714 165.92 213.586 165.88 213.485 165.799C211.951 164.454 210.3 163.248 208.552 162.196C208.215 161.957 207.825 161.804 207.415 161.749V161.749Z" fill="#2B2B2B"/>
<path d="M184.776 225.391L254.417 242.535C257.225 243.227 260.063 241.51 260.754 238.702L297.415 89.7812C298.107 86.9726 296.39 84.1352 293.582 83.4437L223.941 66.2997C221.132 65.6082 218.295 67.3246 217.603 70.1333L180.942 219.054C180.251 221.862 181.967 224.7 184.776 225.391Z" fill="white"/>
<path d="M255.668 243.213C255.2 243.211 254.733 243.153 254.278 243.041L184.639 225.907C183.161 225.54 181.889 224.602 181.101 223.299C180.314 221.996 180.075 220.434 180.437 218.955L217.078 70.0339C217.446 68.5557 218.383 67.283 219.686 66.4938C220.988 65.7045 222.551 65.4629 224.031 65.8216L293.67 82.965C294.405 83.1421 295.097 83.4629 295.707 83.909C296.317 84.355 296.833 84.9175 297.225 85.5639C297.616 86.2102 297.876 86.9278 297.989 87.675C298.102 88.4223 298.065 89.1845 297.882 89.9177L261.231 238.839C260.925 240.084 260.211 241.191 259.203 241.984C258.195 242.777 256.951 243.209 255.668 243.213V243.213ZM184.882 224.943L254.521 242.076C255.125 242.225 255.751 242.253 256.365 242.16C256.979 242.066 257.569 241.853 258.101 241.532C258.632 241.21 259.095 240.787 259.463 240.287C259.832 239.786 260.097 239.218 260.246 238.615L296.898 89.6741C297.189 88.4603 296.988 87.1807 296.34 86.1141C295.692 85.0475 294.648 84.2804 293.437 83.98L223.797 66.8062C223.193 66.6575 222.565 66.6294 221.95 66.7234C221.334 66.8175 220.744 67.0318 220.211 67.3541C219.679 67.6764 219.215 68.1005 218.846 68.6021C218.477 69.1037 218.211 69.673 218.063 70.2775L181.421 219.188C181.121 220.408 181.316 221.696 181.965 222.772C182.614 223.847 183.663 224.621 184.882 224.923V224.943Z" fill="#2B2B2B"/>
<path d="M189.357 202.908L260.791 220.494L290.933 98.0562L219.498 80.4706L189.357 202.908Z" fill="#E6E7E8"/>
<path d="M214.006 227.435L227.597 230.781C229.323 231.206 231.066 230.152 231.491 228.426L232.772 223.222C233.196 221.497 232.142 219.754 230.416 219.329L216.825 215.983C215.1 215.558 213.357 216.613 212.932 218.338L211.651 223.542C211.226 225.267 212.281 227.011 214.006 227.435Z" fill="white"/>
<path d="M228.375 231.399C228.077 231.396 227.781 231.359 227.492 231.287L213.901 227.948C212.942 227.707 212.117 227.098 211.605 226.252C211.094 225.406 210.938 224.392 211.171 223.431L212.45 218.234C212.69 217.275 213.299 216.45 214.145 215.938C214.992 215.427 216.006 215.27 216.966 215.504L230.547 218.853C231.023 218.968 231.471 219.177 231.867 219.466C232.262 219.755 232.596 220.12 232.85 220.539C233.103 220.957 233.272 221.422 233.345 221.906C233.419 222.391 233.396 222.885 233.277 223.36L231.999 228.557C231.801 229.368 231.336 230.089 230.679 230.605C230.021 231.12 229.21 231.4 228.375 231.399V231.399ZM214.165 226.963L227.756 230.302C228.105 230.388 228.467 230.403 228.822 230.347C229.176 230.291 229.516 230.165 229.821 229.976C230.127 229.787 230.391 229.539 230.6 229.246C230.808 228.954 230.956 228.623 231.034 228.272L232.313 223.076C232.397 222.727 232.412 222.365 232.355 222.011C232.298 221.657 232.172 221.317 231.983 221.012C231.794 220.707 231.547 220.443 231.255 220.234C230.963 220.026 230.633 219.877 230.283 219.797L216.703 216.448C216.353 216.365 215.991 216.351 215.637 216.408C215.282 216.466 214.943 216.592 214.637 216.781C214.332 216.969 214.067 217.216 213.857 217.507C213.647 217.798 213.496 218.128 213.414 218.478L212.135 223.674C212.052 224.024 212.039 224.386 212.096 224.74C212.153 225.095 212.28 225.434 212.468 225.74C212.657 226.045 212.904 226.31 213.195 226.52C213.486 226.73 213.816 226.881 214.165 226.963V226.963Z" fill="#E6E7E8"/>
<path d="M270.163 85.5127H270.041L249.741 80.5087C249.676 80.4933 249.616 80.4653 249.562 80.4261C249.509 80.387 249.464 80.3377 249.43 80.281C249.396 80.2243 249.374 80.1613 249.364 80.0959C249.355 80.0304 249.359 79.9637 249.375 79.8998C249.407 79.7694 249.488 79.6568 249.602 79.5864C249.716 79.516 249.854 79.4937 249.984 79.5242L270.284 84.5281C270.415 84.5618 270.528 84.6454 270.598 84.7611C270.669 84.8769 270.691 85.0155 270.66 85.1473C270.629 85.2544 270.563 85.3482 270.473 85.4143C270.383 85.4803 270.274 85.5149 270.163 85.5127V85.5127Z" fill="#E6E7E8"/>
<path d="M246.97 79.8084H246.848L244.128 79.1385C243.997 79.1071 243.885 79.0255 243.814 78.9114C243.744 78.7973 243.722 78.66 243.752 78.5295C243.766 78.4642 243.794 78.4026 243.832 78.3481C243.871 78.2936 243.92 78.2475 243.977 78.2124C244.034 78.1774 244.097 78.1542 244.163 78.1441C244.229 78.134 244.297 78.1374 244.361 78.1539L247.092 78.8238C247.158 78.8318 247.223 78.8529 247.281 78.8857C247.34 78.9186 247.391 78.9627 247.433 79.0155C247.474 79.0683 247.505 79.1287 247.523 79.1934C247.541 79.258 247.546 79.3256 247.538 79.3922C247.53 79.4589 247.509 79.5233 247.476 79.5818C247.443 79.6403 247.399 79.6918 247.346 79.7332C247.294 79.7747 247.233 79.8054 247.169 79.8235C247.104 79.8416 247.036 79.8468 246.97 79.8388V79.8084Z" fill="#E6E7E8"/>
<path d="M211.432 179.61L253.89 189.498C257.646 190.373 261.4 188.037 262.275 184.281L262.984 181.236C263.859 177.48 261.523 173.726 257.767 172.851L215.309 162.963C211.553 162.088 207.798 164.424 206.924 168.18L206.215 171.225C205.34 174.981 207.676 178.735 211.432 179.61Z" fill="#2B2B2B"/>
<path d="M255.476 190.19C254.905 190.187 254.336 190.118 253.78 189.987L211.323 180.101C209.389 179.649 207.714 178.448 206.665 176.762C205.616 175.075 205.28 173.042 205.73 171.108L206.441 168.063C206.663 167.104 207.072 166.199 207.645 165.399C208.217 164.598 208.942 163.919 209.777 163.398C210.612 162.878 211.541 162.527 212.512 162.366C213.483 162.205 214.475 162.237 215.434 162.46L257.891 172.346C259.824 172.8 261.497 174.001 262.546 175.687C263.594 177.372 263.931 179.405 263.484 181.339L262.773 184.384C262.389 186.032 261.459 187.503 260.135 188.556C258.81 189.61 257.168 190.186 255.476 190.19V190.19ZM213.739 163.282C212.277 163.284 210.858 163.779 209.713 164.687C208.567 165.595 207.761 166.863 207.425 168.286L206.715 171.331C206.522 172.159 206.495 173.018 206.634 173.857C206.773 174.696 207.076 175.499 207.525 176.221C207.975 176.943 208.562 177.57 209.254 178.065C209.946 178.559 210.728 178.913 211.556 179.106L254.014 188.992C255.687 189.378 257.445 189.086 258.902 188.178C260.359 187.271 261.398 185.822 261.789 184.15L262.499 181.105C262.886 179.432 262.593 177.675 261.686 176.217C260.778 174.76 259.33 173.722 257.658 173.33L215.18 163.455C214.708 163.34 214.224 163.282 213.739 163.282Z" fill="#2B2B2B"/>
<path d="M222.458 170.57C222.328 170.248 222.106 169.972 221.818 169.778C221.514 169.566 221.168 169.421 220.803 169.352C220.625 169.295 220.441 169.257 220.255 169.24C220.054 169.246 219.855 169.283 219.666 169.352C219.485 169.423 219.322 169.534 219.189 169.676C219.05 169.839 218.956 170.035 218.915 170.245C218.874 170.395 218.868 170.553 218.898 170.707C218.928 170.86 218.993 171.004 219.088 171.128C219.322 171.387 219.588 171.615 219.879 171.808C220.204 172.021 220.56 172.244 220.966 172.468C221.338 172.681 221.68 172.944 221.981 173.249C222.287 173.559 222.526 173.929 222.681 174.335C222.826 174.839 222.826 175.374 222.681 175.878C222.574 176.377 222.356 176.846 222.041 177.248C221.773 177.601 221.425 177.886 221.026 178.081C220.609 178.276 220.157 178.39 219.697 178.416C219.207 178.481 218.71 178.467 218.225 178.375C217.598 178.238 217 177.991 216.459 177.644C215.916 177.293 215.478 176.802 215.19 176.223L216.865 175.208C217.003 175.601 217.24 175.951 217.555 176.223C217.868 176.49 218.241 176.678 218.641 176.771C218.859 176.812 219.08 176.833 219.301 176.832C219.519 176.82 219.735 176.775 219.94 176.7C220.136 176.625 220.313 176.507 220.458 176.355C220.61 176.194 220.716 175.994 220.763 175.777C220.807 175.615 220.816 175.446 220.788 175.281C220.76 175.117 220.696 174.96 220.6 174.823C220.377 174.545 220.113 174.302 219.819 174.102C219.494 173.889 219.128 173.665 218.733 173.442C218.365 173.222 218.024 172.96 217.718 172.661C217.41 172.356 217.172 171.989 217.017 171.585C216.872 171.084 216.872 170.553 217.017 170.052C217.115 169.571 217.335 169.123 217.657 168.753C217.958 168.424 218.324 168.161 218.733 167.981C219.158 167.804 219.612 167.704 220.072 167.687C221.103 167.644 222.125 167.898 223.016 168.418C223.487 168.706 223.891 169.09 224.203 169.545L222.458 170.57Z" fill="white"/>
<path d="M226.243 169.118L233.024 170.671L232.648 172.315L227.685 171.189L227.116 173.706L231.816 174.721L231.44 176.375L226.741 175.33L226.101 178.111L231.329 179.299L230.953 180.953L223.909 179.39L226.243 169.118Z" fill="white"/>
<path d="M235.084 171.138L237.5 171.686L240.727 180.425L242.463 172.813L244.29 173.229L241.976 183.45L239.662 182.922L236.383 173.919L234.587 181.775L232.77 181.359L235.084 171.138Z" fill="white"/>
<path d="M246.645 173.767L250.705 174.68C251.368 174.829 252.003 175.087 252.583 175.442C253.151 175.779 253.644 176.228 254.034 176.761C254.429 177.32 254.699 177.957 254.826 178.629C254.964 179.414 254.936 180.22 254.745 180.994C254.583 181.785 254.235 182.526 253.73 183.156C253.279 183.7 252.719 184.143 252.085 184.455C251.466 184.751 250.8 184.933 250.116 184.993C249.461 185.056 248.8 185.015 248.157 184.871L244.341 184.008L246.645 173.767ZM247.863 183.085C248.41 183.205 248.968 183.263 249.528 183.257C250.03 183.246 250.526 183.14 250.989 182.943C251.431 182.753 251.818 182.456 252.116 182.08C252.464 181.633 252.704 181.112 252.816 180.557C252.949 180.012 252.973 179.447 252.887 178.893C252.803 178.435 252.611 178.004 252.329 177.634C252.035 177.269 251.668 176.969 251.253 176.751C250.778 176.505 250.273 176.32 249.751 176.203L248.086 175.827L246.513 182.77L247.863 183.085Z" fill="white"/>
<path d="M295.812 220.041C295.812 220.041 289.275 165.444 282.881 159.466C275.278 152.361 268.346 147.549 267.087 151.609C265.829 155.669 264.631 162.419 275.024 170.022L273.502 183.541C273.502 183.541 263.281 190.646 268.6 212.905" fill="white"/>
<path d="M295.801 220.508C295.688 220.504 295.58 220.46 295.497 220.383C295.413 220.307 295.359 220.204 295.345 220.091C295.284 219.554 288.767 165.596 282.566 159.8C273.228 151.092 269.777 150.331 268.538 150.665C268.286 150.739 268.058 150.88 267.879 151.073C267.7 151.266 267.577 151.504 267.523 151.762C266.082 156.39 265.656 162.602 275.298 169.666C275.365 169.714 275.417 169.779 275.449 169.854C275.482 169.929 275.493 170.012 275.481 170.093L273.969 183.602C273.959 183.669 273.936 183.733 273.901 183.79C273.866 183.848 273.82 183.898 273.766 183.937C273.664 184.008 263.88 191.123 269.056 212.814C269.081 212.933 269.059 213.058 268.995 213.162C268.931 213.266 268.829 213.341 268.711 213.372C268.591 213.4 268.466 213.379 268.361 213.314C268.257 213.25 268.182 213.146 268.153 213.027C263.139 192.006 271.665 184.384 273.065 183.298L274.537 170.255C264.641 162.917 265.118 156.37 266.64 151.477C266.739 151.069 266.945 150.694 267.238 150.392C267.531 150.09 267.899 149.872 268.305 149.762C270.812 149.102 275.826 152.259 283.195 159.141C289.65 165.16 296.004 217.757 296.268 220.041C296.277 220.102 296.273 220.163 296.257 220.223C296.241 220.282 296.213 220.338 296.175 220.386C296.137 220.434 296.09 220.474 296.036 220.504C295.983 220.534 295.923 220.552 295.862 220.558L295.801 220.508Z" fill="#2B2B2B"/>
<path d="M103.266 240.026C103.266 240.026 123.627 200.573 138.964 182.79C141.055 180.364 143.734 179.958 145.612 181.207C147.835 182.699 147.926 187.662 147.926 187.662C147.926 187.662 153.742 184.333 156.533 185.023C159.325 185.713 159.649 190.098 159.649 190.098C159.649 190.098 165.871 188.068 168.429 190.261C170.987 192.453 171.058 196.351 171.058 196.351C171.058 196.351 203.802 170.397 207.415 168.215C211.029 166.033 217.504 169.91 214.307 174.518C212.277 177.39 195.773 193.62 190.424 198.776C185.075 203.933 172.611 217.96 171.22 222.081C169.83 226.202 168.642 230.891 177.138 231.47C185.633 232.048 193.205 233.5 196.93 236.626C200.655 239.752 203.102 244.431 201.234 245.345C199.366 246.258 169.332 242.878 157.924 247.466C146.515 252.054 131.666 268.781 131.666 268.781L103.266 240.026Z" fill="white"/>
<path d="M131.666 269.319C131.598 269.321 131.53 269.308 131.467 269.282C131.404 269.255 131.347 269.216 131.3 269.167L102.88 240.392C102.807 240.312 102.759 240.213 102.742 240.106C102.726 239.999 102.742 239.89 102.789 239.793C103.002 239.407 123.353 200.076 138.558 182.455C140.709 179.969 143.633 179.299 145.876 180.791C147.733 182.029 148.231 185.297 148.362 186.881C150.047 185.998 154.26 183.988 156.635 184.577C159.01 185.165 159.842 188.139 160.055 189.449C161.72 188.992 166.45 187.936 168.734 189.885C170.274 191.348 171.239 193.314 171.454 195.427C176.448 191.479 203.792 169.859 207.131 167.839C209.526 166.398 212.774 167.372 214.409 169.118C215.152 169.876 215.593 170.88 215.647 171.94C215.702 173 215.366 174.044 214.703 174.873C212.673 177.766 196.433 193.722 190.759 199.233C185.085 204.745 173.017 218.356 171.677 222.314C170.885 224.669 170.195 227.115 171.301 228.77C172.164 230.069 174.133 230.8 177.158 231.033C187.075 231.703 193.824 233.479 197.235 236.311C200.28 238.849 202.584 242.533 202.31 244.512C202.289 244.799 202.193 245.075 202.033 245.314C201.873 245.552 201.653 245.745 201.396 245.873C200.747 246.197 198.29 246.116 192.809 245.873C182.73 245.487 165.851 244.858 158.056 247.984C146.891 252.47 132.133 269.025 131.98 269.187C131.936 269.241 131.881 269.285 131.817 269.315C131.754 269.345 131.685 269.36 131.615 269.36L131.666 269.319ZM103.885 239.884L131.645 268.02C134.041 265.381 147.195 251.181 157.731 246.948C165.739 243.731 182.751 244.381 192.911 244.766C196.808 244.918 200.493 245.061 201.031 244.837C201.136 244.785 201.225 244.704 201.286 244.603C201.347 244.503 201.378 244.387 201.376 244.269C201.548 242.828 199.64 239.478 196.626 236.971C193.388 234.281 186.831 232.576 177.128 231.896C173.727 231.663 171.555 230.78 170.5 229.186C169.129 227.156 169.88 224.436 170.753 221.837C172.245 217.432 185.075 203.182 190.038 198.35C195.489 193.103 211.922 176.964 213.86 174.173C214.397 173.537 214.674 172.722 214.637 171.89C214.599 171.059 214.249 170.272 213.657 169.687C212.287 168.235 209.547 167.444 207.638 168.59C204.106 170.722 171.667 196.432 171.342 196.686C171.267 196.744 171.177 196.781 171.082 196.792C170.987 196.803 170.891 196.787 170.804 196.747C170.72 196.706 170.648 196.643 170.598 196.564C170.547 196.485 170.52 196.394 170.52 196.3C170.52 196.3 170.418 192.534 168.074 190.535C165.729 188.535 159.832 190.443 159.771 190.464C159.699 190.489 159.621 190.497 159.545 190.487C159.469 190.476 159.397 190.447 159.335 190.403C159.269 190.362 159.214 190.305 159.175 190.238C159.136 190.17 159.114 190.095 159.111 190.017C159.111 190.017 158.787 186.028 156.391 185.439C154.26 184.912 149.712 187.124 148.149 188.018C148.072 188.062 147.985 188.086 147.896 188.086C147.807 188.086 147.719 188.062 147.642 188.018C147.565 187.976 147.501 187.914 147.457 187.839C147.412 187.764 147.388 187.679 147.388 187.591C147.388 186.282 146.941 182.648 145.297 181.552C143.653 180.456 141.115 180.963 139.319 183.034C124.957 199.802 105.885 236.108 103.885 239.935V239.884Z" fill="#2B2B2B"/>
<path d="M126.56 107.792L106.981 159.638L156.127 168.448C156.939 166.276 158.655 164.754 159.913 165.038L165.618 166.296C166.095 166.408 166.744 165.951 167.16 165.15C167.47 164.6 167.612 163.972 167.566 163.343C167.566 163.184 167.517 163.029 167.427 162.898C167.336 162.768 167.208 162.668 167.059 162.612L157.853 160.105C157.679 160.039 157.526 159.927 157.411 159.78C157.297 159.633 157.225 159.458 157.203 159.273C157.131 158.747 157.198 158.212 157.396 157.72C157.832 156.573 158.726 155.822 159.426 156.035L160.715 156.4L165.719 157.963C166.43 158.187 167.434 157.334 167.881 156.055C168.07 155.554 168.14 155.015 168.084 154.482C168.084 154.284 168.029 154.09 167.925 153.921C167.821 153.753 167.672 153.616 167.495 153.528L157.66 149.955C157.474 149.869 157.314 149.736 157.196 149.568C157.078 149.401 157.007 149.205 156.99 149.001C156.887 148.268 157.03 147.522 157.396 146.88C157.904 145.936 158.716 145.499 159.314 145.753L172.509 151.274C173.108 151.518 173.951 150.777 174.397 149.6C174.844 148.432 174.732 147.255 174.144 146.971L165.009 142.586C164.834 142.48 164.69 142.331 164.588 142.153C164.487 141.976 164.433 141.775 164.43 141.571C164.361 141.02 164.434 140.461 164.643 139.947C165.069 138.81 165.922 138.161 166.541 138.485L167.353 138.891L172.702 141.733C173.21 142.008 174.154 141.886 174.824 140.343C175.889 137.897 174.824 137.156 174.519 136.983L169.353 133.624L126.56 107.792Z" fill="white"/>
<path d="M126.56 107.792L169.332 133.603L174.499 136.963C174.783 137.136 175.869 137.877 174.803 140.323C174.306 141.46 173.656 141.825 173.149 141.825C172.987 141.826 172.826 141.787 172.682 141.713L167.333 138.871L166.521 138.465C166.414 138.412 166.296 138.384 166.176 138.384C165.618 138.384 164.978 138.993 164.623 139.927C164.414 140.441 164.34 141 164.41 141.551C164.412 141.755 164.467 141.955 164.568 142.133C164.669 142.31 164.814 142.459 164.988 142.566L174.123 146.951C174.712 147.235 174.824 148.412 174.377 149.58C173.991 150.595 173.301 151.295 172.733 151.295C172.652 151.31 172.57 151.31 172.489 151.295L159.294 145.773C159.182 145.723 159.061 145.699 158.939 145.702C158.598 145.753 158.276 145.889 158.002 146.099C157.729 146.308 157.513 146.584 157.376 146.9C157.01 147.543 156.867 148.289 156.97 149.021C156.987 149.225 157.058 149.421 157.176 149.589C157.293 149.756 157.454 149.89 157.64 149.975L167.445 153.589C167.622 153.677 167.771 153.814 167.874 153.982C167.978 154.151 168.033 154.345 168.033 154.543C168.089 155.076 168.02 155.615 167.83 156.116C167.434 157.263 166.582 158.065 165.902 158.065C165.824 158.076 165.746 158.076 165.668 158.065L160.664 156.502L159.355 156.045C159.278 156.034 159.199 156.034 159.122 156.045C158.492 156.045 157.741 156.756 157.355 157.771C157.157 158.263 157.09 158.798 157.163 159.324C157.184 159.508 157.256 159.684 157.371 159.831C157.485 159.978 157.638 160.09 157.812 160.156L167.018 162.663C167.167 162.719 167.295 162.818 167.386 162.949C167.477 163.08 167.526 163.235 167.526 163.394C167.571 164.023 167.43 164.651 167.12 165.2C167.005 165.498 166.816 165.761 166.571 165.965C166.326 166.17 166.032 166.308 165.719 166.368H165.577L159.873 165.109C159.771 165.099 159.669 165.099 159.568 165.109C158.35 165.109 156.838 166.55 156.087 168.55L106.94 159.74L126.52 107.893L126.56 107.792ZM126.52 106.97C126.419 106.95 126.316 106.95 126.215 106.97C126.086 107.013 125.968 107.085 125.87 107.18C125.771 107.275 125.695 107.39 125.647 107.518L106.078 159.354C106.027 159.482 106.006 159.62 106.016 159.757C106.027 159.894 106.069 160.027 106.139 160.146C106.206 160.264 106.297 160.366 106.408 160.445C106.518 160.523 106.645 160.577 106.778 160.602L155.914 169.413H156.087C156.274 169.411 156.456 169.353 156.61 169.246C156.764 169.139 156.882 168.989 156.949 168.814C157.65 166.956 158.919 165.972 159.568 165.972H159.67L165.445 167.21C165.556 167.221 165.669 167.221 165.78 167.21C166.264 167.158 166.726 166.977 167.117 166.686C167.508 166.395 167.814 166.005 168.003 165.556C168.405 164.836 168.578 164.011 168.5 163.191C168.48 162.85 168.357 162.524 168.146 162.255C167.936 161.987 167.649 161.789 167.323 161.688L158.188 159.202C158.184 159.158 158.184 159.114 158.188 159.07C158.153 158.725 158.202 158.377 158.33 158.055C158.395 157.816 158.509 157.594 158.664 157.402C158.82 157.21 159.014 157.052 159.233 156.938L160.502 157.304L165.486 158.857C165.65 158.909 165.821 158.936 165.993 158.938C166.663 158.835 167.287 158.537 167.788 158.08C168.288 157.623 168.642 157.028 168.805 156.37C169.039 155.721 169.123 155.026 169.048 154.34C169.028 153.972 168.905 153.617 168.693 153.316C168.482 153.014 168.19 152.778 167.851 152.635L158.046 149.021C158.017 148.938 157.993 148.853 157.975 148.768C157.91 148.247 158.017 147.719 158.279 147.265C158.573 146.727 158.919 146.545 159.03 146.545L172.225 152.066C172.418 152.147 172.625 152.189 172.834 152.188C173.849 152.188 174.813 151.275 175.341 149.864C175.991 148.169 175.686 146.565 174.621 146.057L165.486 141.673C165.486 141.673 165.486 141.581 165.425 141.399C165.383 141.002 165.439 140.601 165.587 140.231C165.698 139.856 165.934 139.53 166.257 139.308L167.028 139.683L172.347 142.515C172.627 142.657 172.937 142.73 173.25 142.728C173.738 142.728 174.945 142.535 175.757 140.698C177.036 137.755 175.707 136.557 175.077 136.171L169.931 132.842L127.139 107.01C126.995 106.922 126.83 106.877 126.662 106.878L126.52 106.97Z" fill="#2B2B2B"/>
<path d="M141.552 151.64H141.4C141.333 151.615 141.274 151.576 141.224 151.525C141.175 151.474 141.138 151.413 141.115 151.346L126.57 109.254C126.542 109.14 126.558 109.019 126.615 108.916C126.672 108.814 126.765 108.736 126.876 108.699C126.987 108.662 127.109 108.668 127.216 108.716C127.323 108.764 127.408 108.851 127.454 108.959L141.806 150.473L168.49 133.603C168.595 133.541 168.719 133.521 168.838 133.547C168.957 133.574 169.061 133.645 169.129 133.745C169.163 133.797 169.185 133.855 169.195 133.915C169.205 133.976 169.203 134.038 169.189 134.097C169.175 134.157 169.149 134.213 169.112 134.263C169.076 134.312 169.03 134.354 168.977 134.385L141.826 151.569C141.744 151.621 141.648 151.646 141.552 151.64Z" fill="#2B2B2B"/>
<path d="M106.981 160.105C106.877 160.108 106.776 160.076 106.693 160.014C106.61 159.952 106.55 159.863 106.524 159.763C106.498 159.662 106.507 159.556 106.55 159.462C106.592 159.367 106.665 159.29 106.758 159.242L138.101 141.459C138.208 141.4 138.333 141.385 138.451 141.417C138.568 141.45 138.669 141.527 138.73 141.632C138.761 141.684 138.781 141.743 138.789 141.803C138.796 141.863 138.792 141.924 138.776 141.983C138.76 142.041 138.732 142.096 138.695 142.144C138.657 142.192 138.611 142.232 138.558 142.261L107.214 160.044C107.143 160.084 107.063 160.105 106.981 160.105Z" fill="#2B2B2B"/>
<path d="M156.127 168.905C156.027 168.905 155.929 168.872 155.848 168.812C155.768 168.751 155.709 168.667 155.681 168.57L149.144 146.24C149.125 146.127 149.148 146.01 149.209 145.912C149.27 145.815 149.366 145.743 149.477 145.712C149.588 145.68 149.706 145.691 149.81 145.742C149.913 145.792 149.994 145.879 150.037 145.986L156.564 168.316C156.582 168.375 156.589 168.437 156.583 168.498C156.577 168.559 156.559 168.619 156.53 168.673C156.5 168.727 156.46 168.774 156.412 168.812C156.364 168.851 156.308 168.879 156.249 168.895L156.127 168.905Z" fill="#2B2B2B"/>
<path d="M196.23 15.1022L118.755 86.8119L195.012 143.652C198.25 140.658 202.462 139.521 204.37 141.064L213.018 148.067C213.739 148.656 215.221 148.433 216.631 147.428C217.628 146.751 218.402 145.794 218.854 144.677C218.985 144.409 219.032 144.107 218.988 143.812C218.945 143.517 218.813 143.242 218.611 143.023L205.03 130.873C204.785 130.616 204.619 130.294 204.55 129.945C204.482 129.596 204.515 129.235 204.644 128.904C204.957 127.942 205.526 127.082 206.289 126.417C208.004 124.834 210.166 124.316 211.13 125.24L213.018 126.965L220.214 133.877C221.229 134.892 223.676 134.273 225.523 132.477C226.269 131.781 226.846 130.923 227.208 129.97C227.378 129.63 227.449 129.248 227.413 128.87C227.377 128.491 227.236 128.13 227.005 127.828L213.373 113.334C213.132 113.027 212.975 112.662 212.918 112.276C212.861 111.889 212.906 111.495 213.048 111.131C213.495 109.8 214.369 108.655 215.535 107.873C217.2 106.696 218.966 106.645 219.778 107.579L237.591 128.214C238.403 129.158 240.484 128.599 242.24 126.986C243.996 125.362 244.808 123.261 244.036 122.276L232.131 106.99C231.931 106.668 231.812 106.301 231.786 105.923C231.759 105.544 231.825 105.165 231.978 104.818C232.338 103.827 232.938 102.941 233.724 102.24C235.419 100.677 237.429 100.291 238.2 101.377L239.215 102.747L245.914 112.146C246.544 113.029 248.259 113.628 250.705 111.568C254.613 108.31 253.385 106.127 253.04 105.579L247.081 95.4293L196.23 15.1022Z" fill="#D9B4FD"/>
<path d="M196.23 15.1021L247.163 95.4698L253.121 105.62C253.466 106.168 254.694 108.35 250.786 111.608C249.964 112.413 248.887 112.904 247.741 112.999C247.409 113.015 247.078 112.95 246.777 112.808C246.476 112.667 246.215 112.453 246.016 112.187L239.317 102.788L238.302 101.418C238.145 101.211 237.94 101.047 237.704 100.939C237.469 100.831 237.21 100.783 236.952 100.799C235.766 100.902 234.656 101.428 233.826 102.28C233.039 102.982 232.439 103.868 232.08 104.859C231.927 105.206 231.861 105.585 231.887 105.963C231.914 106.342 232.032 106.708 232.232 107.031L244.138 122.317C244.909 123.332 244.138 125.362 242.341 127.026C241.415 127.981 240.183 128.581 238.86 128.721C238.643 128.734 238.426 128.698 238.224 128.618C238.023 128.537 237.841 128.413 237.693 128.254L219.879 107.619C219.673 107.402 219.422 107.231 219.143 107.119C218.865 107.007 218.565 106.956 218.266 106.97C217.314 107.009 216.397 107.339 215.637 107.914C214.471 108.695 213.596 109.841 213.15 111.172C213.008 111.536 212.963 111.93 213.02 112.316C213.077 112.703 213.234 113.067 213.475 113.374L227.106 127.869C227.337 128.171 227.479 128.532 227.515 128.91C227.551 129.289 227.479 129.67 227.309 130.01C226.947 130.964 226.371 131.822 225.624 132.517C224.589 133.608 223.186 134.277 221.686 134.395C221.184 134.424 220.691 134.252 220.316 133.918L213.12 127.006L211.232 125.28C210.87 124.966 210.401 124.802 209.922 124.824C208.762 124.962 207.663 125.421 206.749 126.149C205.835 126.877 205.141 127.845 204.746 128.945C204.616 129.275 204.583 129.636 204.652 129.985C204.72 130.334 204.887 130.656 205.132 130.914L218.702 143.023C218.905 143.242 219.036 143.517 219.08 143.812C219.123 144.107 219.076 144.409 218.946 144.677C218.493 145.794 217.72 146.751 216.723 147.428C215.983 147.999 215.088 148.335 214.155 148.392C213.79 148.399 213.433 148.285 213.14 148.067L204.492 141.064C203.836 140.579 203.033 140.336 202.218 140.373C199.537 140.591 197.019 141.753 195.113 143.652L118.755 86.8119L196.2 15.1021H196.23ZM196.2 14.1785C195.965 14.1832 195.739 14.2693 195.56 14.4221L118.156 86.1318C118.057 86.2243 117.979 86.3377 117.928 86.4638C117.877 86.5899 117.855 86.7257 117.862 86.8614C117.87 86.9972 117.908 87.1295 117.973 87.249C118.037 87.3685 118.128 87.4723 118.237 87.5528L194.484 144.393C194.648 144.507 194.842 144.571 195.042 144.576C195.275 144.577 195.5 144.49 195.672 144.332C197.406 142.6 199.688 141.523 202.127 141.287C202.73 141.251 203.327 141.419 203.822 141.764L212.47 148.767C212.933 149.127 213.508 149.314 214.094 149.295C215.221 149.242 216.305 148.845 217.2 148.158C218.352 147.372 219.243 146.258 219.758 144.961C219.955 144.52 220.014 144.029 219.925 143.554C219.836 143.079 219.604 142.642 219.26 142.302L205.69 130.203C205.406 129.949 205.517 129.401 205.578 129.188C205.918 128.282 206.495 127.485 207.248 126.878C208.002 126.271 208.904 125.877 209.861 125.737C210.102 125.723 210.339 125.795 210.531 125.94L212.44 127.625L219.605 134.517C220.16 135.017 220.889 135.279 221.635 135.248C223.378 135.128 225.013 134.365 226.223 133.106C227.073 132.307 227.729 131.324 228.142 130.234C228.363 129.738 228.443 129.191 228.371 128.653C228.299 128.116 228.079 127.608 227.736 127.189L214.094 112.705C213.966 112.513 213.889 112.293 213.87 112.064C213.85 111.835 213.889 111.605 213.982 111.395C214.369 110.265 215.119 109.295 216.114 108.634C216.717 108.17 217.445 107.898 218.205 107.853C218.372 107.842 218.539 107.867 218.697 107.924C218.854 107.982 218.998 108.072 219.118 108.188L236.931 128.823C237.166 129.082 237.455 129.286 237.778 129.421C238.101 129.557 238.45 129.619 238.799 129.604C240.338 129.453 241.774 128.767 242.859 127.666C245.041 125.636 245.904 123.088 244.767 121.687L232.912 106.412C232.814 106.207 232.763 105.983 232.763 105.757C232.763 105.53 232.814 105.306 232.912 105.102C233.224 104.261 233.736 103.509 234.404 102.91C235.066 102.219 235.95 101.784 236.901 101.682C237.011 101.669 237.123 101.682 237.227 101.721C237.332 101.76 237.425 101.823 237.5 101.905L238.515 103.295L245.194 112.674C245.483 113.057 245.86 113.367 246.292 113.576C246.724 113.786 247.2 113.891 247.68 113.882C249.052 113.795 250.35 113.227 251.344 112.278C255.526 108.776 254.501 106.077 253.862 105.072L247.924 94.9928L197.012 14.6149C196.938 14.499 196.84 14.4007 196.724 14.327C196.608 14.2533 196.478 14.2061 196.342 14.1886L196.2 14.1785Z" fill="#2B2B2B"/>
<path d="M184.892 102.25C184.766 102.249 184.646 102.198 184.557 102.108C184.511 102.058 184.476 101.999 184.455 101.934C184.434 101.869 184.427 101.8 184.436 101.732L195.418 17.6599C195.436 17.5375 195.501 17.427 195.6 17.3528C195.699 17.2786 195.823 17.2466 195.946 17.264C196.006 17.2715 196.064 17.2909 196.117 17.3211C196.169 17.3513 196.215 17.3917 196.252 17.4398C196.289 17.488 196.316 17.5431 196.331 17.6018C196.347 17.6605 196.35 17.7216 196.342 17.7817L185.43 101.235L245.742 95.145C245.857 95.1463 245.967 95.19 246.052 95.2676C246.137 95.3453 246.19 95.4515 246.201 95.5659C246.212 95.6803 246.181 95.7949 246.113 95.8876C246.045 95.9804 245.945 96.0448 245.833 96.0686L184.933 102.26L184.892 102.25Z" fill="#2B2B2B"/>
<path d="M118.755 87.2787C118.637 87.2788 118.524 87.2335 118.439 87.1522C118.354 87.0709 118.304 86.9599 118.298 86.8423C118.294 86.7809 118.302 86.7194 118.322 86.6612C118.342 86.6029 118.373 86.5492 118.413 86.5029C118.454 86.4567 118.503 86.419 118.558 86.3919C118.613 86.3648 118.673 86.3488 118.735 86.3449L187.278 82.7011C187.339 82.6939 187.401 82.6998 187.46 82.7185C187.519 82.7372 187.574 82.7682 187.62 82.8095C187.666 82.8508 187.703 82.9013 187.728 82.9579C187.753 83.0145 187.765 83.0757 187.765 83.1375C187.768 83.2607 187.723 83.3802 187.64 83.471C187.556 83.5618 187.441 83.6169 187.318 83.6247L118.785 87.2787H118.755Z" fill="#2B2B2B"/>
<path d="M195.042 144.078H194.961C194.84 144.056 194.733 143.987 194.663 143.886C194.593 143.786 194.565 143.661 194.586 143.54L202.462 99.8952C202.484 99.7744 202.553 99.6673 202.654 99.597C202.755 99.5267 202.879 99.4989 203 99.5196C203.06 99.5294 203.118 99.5512 203.17 99.5837C203.222 99.6163 203.267 99.6589 203.302 99.7091C203.337 99.7593 203.361 99.816 203.374 99.8758C203.387 99.9357 203.387 99.9975 203.376 100.058L195.499 143.703C195.478 143.808 195.421 143.903 195.338 143.972C195.255 144.04 195.15 144.078 195.042 144.078V144.078Z" fill="#2B2B2B"/>
<path d="M228.466 156.045C228.369 156.043 228.275 156.015 228.192 155.964L185.907 125.128C185.809 125.055 185.744 124.947 185.726 124.826C185.708 124.705 185.738 124.582 185.811 124.484C185.884 124.385 185.992 124.32 186.113 124.302C186.234 124.284 186.357 124.315 186.455 124.387L228.74 155.213C228.821 155.269 228.882 155.35 228.914 155.443C228.945 155.537 228.945 155.638 228.915 155.731C228.884 155.825 228.823 155.906 228.743 155.963C228.662 156.019 228.565 156.048 228.466 156.045V156.045Z" fill="white"/>
<path d="M234.272 144.078C234.146 144.077 234.026 144.026 233.937 143.936L219.92 129.3C219.868 129.258 219.826 129.206 219.797 129.146C219.767 129.087 219.75 129.022 219.747 128.956C219.744 128.89 219.756 128.823 219.781 128.762C219.806 128.7 219.843 128.645 219.891 128.599C219.939 128.553 219.997 128.518 220.059 128.496C220.122 128.474 220.188 128.466 220.255 128.472C220.321 128.477 220.385 128.497 220.443 128.53C220.5 128.562 220.551 128.607 220.59 128.66L234.607 143.286C234.695 143.374 234.744 143.493 234.744 143.616C234.744 143.74 234.695 143.859 234.607 143.946C234.515 144.03 234.396 144.077 234.272 144.078V144.078Z" fill="white"/>
<path d="M243.458 143.043C243.332 143.042 243.211 142.991 243.123 142.901L234.526 133.989C234.438 133.902 234.389 133.783 234.389 133.659C234.389 133.536 234.438 133.417 234.526 133.329C234.615 133.244 234.733 133.197 234.856 133.197C234.979 133.197 235.097 133.244 235.186 133.329L243.783 142.241C243.868 142.33 243.915 142.448 243.915 142.571C243.915 142.694 243.868 142.812 243.783 142.901C243.695 142.986 243.58 143.036 243.458 143.043Z" fill="white"/>
<path d="M251.72 138.587C251.649 138.587 251.579 138.571 251.516 138.539C251.452 138.507 251.397 138.461 251.355 138.404C243.235 128.051 230.872 112.42 230.212 111.811C230.163 111.781 230.12 111.74 230.087 111.692C230.054 111.644 230.031 111.59 230.02 111.533C230.008 111.476 230.009 111.417 230.021 111.36C230.033 111.304 230.057 111.25 230.09 111.202C230.124 111.15 230.168 111.104 230.22 111.069C230.271 111.033 230.33 111.008 230.391 110.995C230.452 110.981 230.515 110.98 230.577 110.992C230.639 111.003 230.697 111.026 230.75 111.06C231.227 111.344 244.321 127.96 252.065 137.836C252.139 137.933 252.173 138.056 252.157 138.177C252.142 138.299 252.08 138.41 251.984 138.486C251.908 138.545 251.816 138.58 251.72 138.587V138.587Z" fill="white"/>
<path d="M233.024 150.97C232.925 150.969 232.829 150.937 232.75 150.879L224.315 144.657C224.259 144.623 224.211 144.579 224.173 144.526C224.136 144.473 224.11 144.413 224.097 144.349C224.084 144.286 224.084 144.22 224.098 144.156C224.112 144.093 224.139 144.033 224.177 143.981C224.215 143.928 224.264 143.884 224.32 143.852C224.377 143.819 224.439 143.799 224.504 143.792C224.568 143.785 224.633 143.791 224.695 143.811C224.757 143.83 224.814 143.863 224.863 143.906L233.349 150.128C233.43 150.184 233.49 150.264 233.522 150.358C233.553 150.451 233.554 150.553 233.523 150.646C233.492 150.74 233.432 150.821 233.351 150.878C233.27 150.934 233.173 150.963 233.074 150.96L233.024 150.97Z" fill="white"/>
<path d="M255.567 123.301C255.489 123.302 255.413 123.284 255.344 123.249C255.275 123.213 255.215 123.162 255.171 123.098L243.701 105.62C243.667 105.569 243.644 105.513 243.632 105.453C243.62 105.393 243.621 105.332 243.633 105.272C243.645 105.213 243.669 105.156 243.704 105.106C243.738 105.056 243.782 105.013 243.833 104.98C243.883 104.945 243.94 104.92 244 104.908C244.06 104.895 244.122 104.895 244.182 104.907C244.242 104.92 244.299 104.944 244.349 104.98C244.399 105.015 244.441 105.06 244.473 105.112L255.953 122.55C255.986 122.6 256.01 122.657 256.022 122.717C256.034 122.776 256.033 122.838 256.021 122.897C256.009 122.957 255.985 123.014 255.95 123.064C255.916 123.114 255.872 123.157 255.821 123.189C255.749 123.251 255.661 123.29 255.567 123.301V123.301Z" fill="white"/>
<path d="M229.157 22.9075L197.57 39.32L217.261 64.6037C218.58 63.9236 220.052 63.9338 220.539 64.6037L222.721 67.6487C222.904 67.9024 223.401 67.9633 223.95 67.7603C224.349 67.6358 224.702 67.3956 224.965 67.0701C225.028 66.9911 225.068 66.8962 225.08 66.7959C225.093 66.6956 225.077 66.5938 225.036 66.5017L221.706 61.3557C221.651 61.2506 221.626 61.1319 221.635 61.0134C221.644 60.8948 221.686 60.7812 221.757 60.6858C221.942 60.3986 222.202 60.1671 222.508 60.0159C223.209 59.6606 223.96 59.6809 224.193 60.0159L224.65 60.7467L226.345 63.68C226.589 64.0962 227.441 64.1165 228.202 63.68C228.506 63.5205 228.769 63.295 228.974 63.0203C229.058 62.923 229.115 62.8042 229.136 62.6771C229.158 62.5499 229.144 62.4193 229.096 62.2996L225.969 56.372C225.918 56.2515 225.899 56.1194 225.915 55.9892C225.931 55.859 225.981 55.7354 226.061 55.6311C226.325 55.2384 226.71 54.9426 227.157 54.7886C227.807 54.5552 228.385 54.6973 228.568 55.0728L232.506 63.3755C232.689 63.7612 233.409 63.7612 234.12 63.3755C234.83 63.0101 235.287 62.3605 235.135 62.0154L232.638 55.9762C232.599 55.8538 232.591 55.7236 232.616 55.5976C232.641 55.4716 232.698 55.3539 232.78 55.2555C232.987 54.9663 233.263 54.7327 233.582 54.5755C234.272 54.2202 234.952 54.2811 235.115 54.6973L235.328 55.2352L236.657 58.8892C236.789 59.2343 237.287 59.5794 238.271 59.1328C239.834 58.4223 239.631 57.6103 239.57 57.3972L238.555 53.5808L229.157 22.9075Z" fill="white"/>
<path d="M229.156 22.9074L238.525 53.5909L239.54 57.4073C239.601 57.6204 239.804 58.4223 238.241 59.1429C237.982 59.2726 237.698 59.3452 237.408 59.3561C237.247 59.372 237.084 59.3364 236.944 59.2544C236.803 59.1724 236.692 59.0481 236.627 58.8993L235.297 55.2453L235.084 54.7074C235.023 54.5865 234.925 54.4875 234.805 54.4239C234.685 54.3603 234.549 54.3353 234.414 54.3521C234.113 54.3649 233.818 54.4446 233.551 54.5856C233.232 54.7428 232.957 54.9764 232.75 55.2656C232.667 55.364 232.611 55.4817 232.586 55.6077C232.561 55.7337 232.568 55.8639 232.607 55.9863L235.104 62.0255C235.267 62.4112 234.81 63.0405 234.089 63.3856C233.777 63.555 233.429 63.6489 233.074 63.6597C232.954 63.6745 232.832 63.6546 232.722 63.6025C232.612 63.5504 232.52 63.4681 232.455 63.3653L228.517 55.0626C228.432 54.9297 228.313 54.8225 228.171 54.7527C228.03 54.6829 227.872 54.6532 227.715 54.6668C227.508 54.6726 227.302 54.7103 227.106 54.7784C226.659 54.9324 226.274 55.2282 226.01 55.6209C225.931 55.7253 225.88 55.8488 225.864 55.979C225.848 56.1092 225.867 56.2413 225.919 56.3618L229.045 62.2894C229.093 62.4091 229.107 62.5397 229.085 62.6669C229.064 62.7941 229.008 62.9128 228.923 63.0101C228.718 63.2848 228.455 63.5103 228.152 63.6698C227.816 63.859 227.44 63.9635 227.055 63.9743C226.922 63.9836 226.789 63.9618 226.666 63.9107C226.542 63.8596 226.433 63.7807 226.345 63.68L224.63 60.7872L224.173 60.0564C224.09 59.9492 223.982 59.8649 223.857 59.8116C223.733 59.7583 223.597 59.7377 223.462 59.7519C223.108 59.753 222.76 59.84 222.447 60.0057C222.141 60.1569 221.881 60.3884 221.696 60.6756C221.625 60.771 221.583 60.8846 221.574 61.0032C221.565 61.1218 221.59 61.2404 221.645 61.3455L224.975 66.4915C225.016 66.5836 225.032 66.6854 225.019 66.7858C225.007 66.8861 224.967 66.981 224.904 67.0599C224.641 67.3854 224.288 67.6257 223.889 67.7501C223.691 67.8258 223.481 67.8669 223.269 67.8719C223.157 67.8836 223.043 67.8686 222.937 67.828C222.831 67.7875 222.736 67.7225 222.66 67.6385L220.478 64.5935C220.311 64.4123 220.103 64.2722 219.873 64.1842C219.642 64.0961 219.394 64.0625 219.149 64.086C218.469 64.1042 217.802 64.2778 217.2 64.5935L197.57 39.32L229.156 22.948V22.9074ZM229.156 22.0244C229.008 22.0231 228.862 22.058 228.73 22.1259L197.143 38.4471C197.026 38.5148 196.923 38.6053 196.841 38.7134C196.759 38.8215 196.7 38.9449 196.666 39.0764C196.635 39.2097 196.635 39.3482 196.665 39.4817C196.695 39.6152 196.754 39.7403 196.839 39.8478L216.53 65.1314C216.616 65.2437 216.727 65.335 216.853 65.3983C216.98 65.4616 217.119 65.4953 217.261 65.4968C217.41 65.4958 217.556 65.4574 217.687 65.3852C218.157 65.1366 218.678 64.9978 219.209 64.9792C219.412 64.9576 219.615 65.004 219.788 65.1111L221.97 68.1561C222.129 68.3539 222.332 68.5113 222.563 68.6154C222.794 68.7195 223.047 68.7674 223.3 68.755C223.622 68.7502 223.941 68.6919 224.244 68.5824C224.805 68.3927 225.296 68.0392 225.655 67.5674C225.828 67.341 225.928 67.0677 225.942 66.7832C225.957 66.4988 225.885 66.2167 225.736 65.9739L222.549 61.0511C222.645 60.9621 222.75 60.8839 222.863 60.8177C223.033 60.7303 223.221 60.6817 223.412 60.6756V60.6756L223.797 61.2744L225.502 64.1469C225.672 64.3996 225.904 64.6037 226.176 64.739C226.449 64.8743 226.752 64.9361 227.055 64.9183C227.597 64.9119 228.127 64.7688 228.598 64.5021C229.035 64.2772 229.411 63.9499 229.694 63.548C229.877 63.3149 229.99 63.035 230.02 62.7406C230.051 62.4461 229.998 62.149 229.867 61.8834L226.822 56.1081C226.978 55.906 227.19 55.7542 227.431 55.6716C227.525 55.6334 227.624 55.6128 227.725 55.6107V55.6107L231.603 63.7815C231.739 64.0466 231.95 64.2658 232.21 64.4119C232.47 64.5581 232.767 64.6247 233.064 64.6036C233.561 64.5916 234.048 64.463 234.485 64.2281C235.683 63.6089 236.292 62.5432 235.927 61.6804L233.491 55.7934C233.613 55.6356 233.769 55.5072 233.947 55.4179C234.054 55.3645 234.166 55.3236 234.282 55.2961L234.404 55.6006L235.734 59.2241C235.872 59.5407 236.103 59.8075 236.397 59.9889C236.691 60.1703 237.033 60.2576 237.378 60.2391C237.801 60.2325 238.217 60.132 238.596 59.9448C240.768 58.9298 240.524 57.5088 240.393 57.0926L239.378 53.3067L230.019 22.5928C229.96 22.4027 229.841 22.2368 229.68 22.1198C229.519 22.0027 229.325 21.9408 229.126 21.9432L229.156 22.0244Z" fill="#2B2B2B"/>
<path d="M238.058 53.9767H237.977L217.677 50.5358C217.607 50.5248 217.541 50.4981 217.483 50.4576C217.425 50.4172 217.377 50.3641 217.342 50.3024C217.315 50.2382 217.301 50.1691 217.301 50.0994C217.301 50.0296 217.315 49.9605 217.342 49.8964L228.375 23.547C228.432 23.4476 228.523 23.3726 228.632 23.3363C228.741 23.2999 228.859 23.3048 228.964 23.3499C229.069 23.395 229.154 23.4772 229.203 23.5809C229.252 23.6847 229.26 23.8026 229.228 23.9124L218.367 49.7035L238.129 53.053C238.241 53.0759 238.34 53.1386 238.408 53.2294C238.476 53.3202 238.509 53.4328 238.501 53.5461C238.492 53.6595 238.442 53.7657 238.361 53.845C238.279 53.9242 238.172 53.9711 238.058 53.9767V53.9767Z" fill="#2B2B2B"/>
<path d="M220.174 44.6894H220.072L197.468 39.7261C197.402 39.7201 197.338 39.7 197.28 39.6672C197.222 39.6344 197.172 39.5897 197.133 39.536C197.094 39.4823 197.067 39.4208 197.053 39.3558C197.04 39.2907 197.04 39.2235 197.055 39.1587C197.07 39.0939 197.098 39.0329 197.138 38.9799C197.178 38.9269 197.229 38.883 197.287 38.8512C197.345 38.8194 197.41 38.8004 197.476 38.7955C197.542 38.7906 197.609 38.7998 197.671 38.8227L220.255 43.7759C220.374 43.8027 220.478 43.8751 220.544 43.9775C220.611 44.08 220.634 44.2044 220.61 44.324C220.588 44.4245 220.533 44.5148 220.454 44.5809C220.375 44.647 220.277 44.6851 220.174 44.6894Z" fill="#2B2B2B"/>
<path d="M217.261 65.0299C217.197 65.0443 217.131 65.0443 217.068 65.0299C216.956 64.9771 216.87 64.8824 216.829 64.7664C216.787 64.6504 216.793 64.5225 216.845 64.4108L223.3 50.891C223.325 50.8361 223.361 50.7868 223.405 50.7459C223.449 50.705 223.501 50.6732 223.558 50.6524C223.615 50.6317 223.675 50.6223 223.735 50.6249C223.795 50.6276 223.854 50.6421 223.909 50.6677C224.02 50.7205 224.106 50.8152 224.148 50.9312C224.19 51.0472 224.184 51.175 224.132 51.2868L217.657 64.766C217.621 64.8421 217.566 64.907 217.496 64.9536C217.426 65.0001 217.345 65.0265 217.261 65.0299V65.0299Z" fill="#2B2B2B"/>
<path d="M135.563 278.941L146.678 259.108C146.678 259.108 104.048 229.084 103.266 228.658C102.485 228.232 73.7094 278.698 73.7094 278.698L75.9119 278.931L135.563 278.941Z" fill="#2B2B2B"/>
<path d="M135.563 279.449H75.9119L73.6484 279.215C73.5649 279.206 73.485 279.176 73.4159 279.128C73.3468 279.08 73.2907 279.016 73.2525 278.941C73.2126 278.866 73.1917 278.783 73.1917 278.698C73.1917 278.613 73.2126 278.529 73.2525 278.454C73.3236 278.332 80.5301 265.696 87.7366 253.272C102.576 227.714 102.87 227.897 103.489 228.222C104.281 228.638 142.597 255.627 146.962 258.672C147.066 258.742 147.139 258.849 147.168 258.972C147.196 259.094 147.177 259.223 147.114 259.331L135.949 279.175C135.913 279.249 135.859 279.314 135.792 279.362C135.724 279.41 135.646 279.44 135.563 279.449V279.449ZM74.5315 278.281L75.9626 278.444H135.259L146.018 259.271C131.991 249.395 106.433 231.429 103.317 229.318C101.043 232.17 85.26 259.575 74.5315 278.281Z" fill="#2B2B2B"/>
<path d="M330.088 278.941L332.291 278.708C332.291 278.708 309.484 225.928 308.692 226.374C307.9 226.821 261.149 255.667 261.149 255.667L271.218 278.941H330.088Z" fill="#2B2B2B"/>
<path d="M330.088 279.449H271.218C271.119 279.448 271.023 279.419 270.94 279.365C270.857 279.311 270.792 279.234 270.751 279.144L260.682 255.87C260.637 255.757 260.632 255.631 260.669 255.514C260.706 255.397 260.783 255.297 260.885 255.231C262.794 254.053 307.657 226.344 308.458 225.928C308.525 225.897 308.598 225.882 308.672 225.882C308.745 225.882 308.818 225.897 308.885 225.928C309.981 226.313 322.476 254.744 332.758 278.535C332.795 278.606 332.814 278.684 332.814 278.764C332.814 278.843 332.795 278.922 332.758 278.992C332.717 279.061 332.662 279.12 332.595 279.164C332.528 279.208 332.451 279.236 332.372 279.246L330.159 279.479L330.088 279.449ZM271.543 278.434H330.058L331.56 278.281C323.115 258.783 310.57 230.262 308.58 227.024C305.109 229.125 277.166 246.37 261.789 255.87L271.543 278.434Z" fill="#2B2B2B"/>
</svg>
